ply
format ascii 1.0
element vertex 29
comment vertices
property float x
property float y
property float z
end_header
-0.0375501960515975952 -0.160165220499038696 0.64879840612411499
0.120067782700061798 -0.0869645923376083374 0.679950356483459473
0.0528257712721824646 -0.164583653211593628 0.711407959461212158
0.132939159870147705 -0.128627568483352661 0.70702826976776123
0.00483831390738487244 -0.140746146440505981 0.671740233898162842
0.0593103989958763123 -0.193664819002151489 0.715854346752166748
0.0136414431035518646 -0.123074211180210114 0.703238904476165771
0.0107566602528095245 -0.143710330128669739 0.671768009662628174
0.0413861721754074097 -0.185593277215957642 0.711055934429168701
0.00782531127333641052 -0.125979870557785034 0.681346535682678223
0.00585853308439254761 -0.143834337592124939 0.654096364974975586
0.218995437026023865 -0.150225922465324402 0.714723467826843262
0.0374245867133140564 -0.143695101141929626 0.667024075984954834
-0.0644594281911849976 -0.256958901882171631 0.675419151782989502
0.114095181226730347 -0.0992260351777076721 0.685782313346862793
0.0662009865045547485 -0.236931726336479187 0.700681507587432861
0.0477417111396789551 -0.166703760623931885 0.721023857593536377
0.00104070501402020454 -0.140939503908157349 0.660407185554504395
0.218806624412536621 -0.162901580333709717 0.716753959655761719
0.131983622908592224 -0.147989183664321899 0.710092604160308838
0.121554188430309296 -0.107783138751983643 0.698217272758483887
0.00354949384927749634 -0.128394186496734619 0.703170299530029297
0.0147410556674003601 -0.159006983041763306 0.724651634693145752
-0.00369380787014961243 -0.134750202298164368 0.69136810302734375
0.270632147789001465 -0.465126842260360718 0.685326933860778809
0.00752577930688858032 -0.14570792019367218 0.677025496959686279
-0.0440827906131744385 -0.2389117032289505 0.651169061660766602
0.0354233793914318085 -0.175202399492263794 0.720494866371154785
0.076017230749130249 -0.202902704477310181 0.705569148063659668
