ply
format ascii 1.0
element vertex 113
comment vertices
property float x
property float y
property float z
end_header
1.10810637474060059 2.62639260292053223 -1.06548571586608887
-0.514653265476226807 1.90157043933868408 -1.21810436248779297
0.027869146317243576 2.73564815521240234 -1.17570948600769043
0.135226145386695862 2.53667497634887695 -1.19946658611297607
-1.08498632907867432 2.47578763961791992 -1.1192469596862793
0.217236697673797607 1.37417197227478027 -1.11798191070556641
0.729321718215942383 3.55677604675292969 -1.08667397499084473
1.14848077297210693 2.62062668800354004 -1.09789550304412842
0.028506644070148468 2.52015948295593262 -1.19334161281585693
0.0538574531674385071 2.65737533569335938 -1.18642747402191162
-0.290508925914764404 3.90711712837219238 -1.11870074272155762
0.704256594181060791 3.47599530220031738 -1.12056505680084229
0.679754793643951416 2.18882203102111816 -1.10897350311279297
0.0635775774717330933 2.72939872741699219 -1.17843830585479736
0.103158779442310333 2.94550752639770508 -1.18464696407318115
-0.488368868827819824 1.97058439254760742 -1.17496287822723389
1.12806785106658936 2.6183316707611084 -1.07562649250030518
-0.191579446196556091 2.140533447265625 -1.22438240051269531
0.85831683874130249 3.07629084587097168 -1.12034428119659424
0.515947341918945312 2.68069052696228027 -1.12800300121307373
-1.09506571292877197 2.47678422927856445 -1.07356476783752441
0.201210618019104004 1.38977265357971191 -1.13056743144989014
0.707572460174560547 2.18369078636169434 -1.10115325450897217
-0.265002906322479248 2.50643348693847656 -1.15410935878753662
-0.24525982141494751 2.15002274513244629 -1.21191489696502686
0.121914207935333252 2.65449714660644531 -1.19789266586303711
0.871136605739593506 4.1832423210144043 -0.925256133079528809
-0.303376913070678711 3.90633749961853027 -1.12817287445068359
0.0362094268202781677 2.72083854675292969 -1.18124604225158691
0.757020413875579834 3.5259709358215332 -1.09916281700134277
0.765146076679229736 2.28111505508422852 -1.08690249919891357
-0.115938208997249603 2.32687950134277344 -1.18377101421356201
0.678862094879150391 2.18666553497314453 -1.10329353809356689
-1.0965421199798584 2.47287988662719727 -1.12919950485229492
0.135191544890403748 2.76153349876403809 -1.19792461395263672
0.684549510478973389 2.21224117279052734 -1.10801815986633301
1.11772894859313965 2.62436032295227051 -1.06916999816894531
1.08963930606842041 2.64304208755493164 -1.05203282833099365
-0.294613271951675415 3.89774489402770996 -1.12752056121826172
0.714761674404144287 3.54716777801513672 -1.09107410907745361
0.738990426063537598 3.5499577522277832 -1.0957108736038208
0.208905667066574097 1.35265648365020752 -1.14364016056060791
0.0322074666619300842 2.68931865692138672 -1.16459381580352783
0.499695390462875366 1.85908782482147217 -1.14992892742156982
-1.08257532119750977 2.47790193557739258 -1.1085200309753418
-0.334059238433837891 2.12375736236572266 -1.17724108695983887
0.103682428598403931 2.63825654983520508 -1.20123374462127686
-0.338983386754989624 1.9693446159362793 -1.19930076599121094
0.678795456886291504 2.80703234672546387 -1.12163853645324707
-0.0409314334392547607 2.59624981880187988 -1.17061078548431396
-0.234502926468849182 2.29294228553771973 -1.17134618759155273
0.685814082622528076 2.19043779373168945 -1.11133849620819092
-0.0251578912138938904 2.17976284027099609 -1.19044196605682373
-0.925553321838378906 2.19333791732788086 -1.18140888214111328
-0.45127713680267334 1.98087334632873535 -1.21606063842773438
0.0489624328911304474 2.80919575691223145 -1.18781828880310059
1.09831297397613525 2.62680745124816895 -1.085044264793396
-0.298430919647216797 3.90718698501586914 -1.12083029747009277
0.213711276650428772 1.35944712162017822 -1.13756072521209717
0.0676228627562522888 2.5581200122833252 -1.18683373928070068
0.675753474235534668 2.18730664253234863 -1.10491287708282471
0.237686485052108765 2.85791850090026855 -1.19129312038421631
0.60406804084777832 2.77764058113098145 -1.14693737030029297
-0.421078652143478394 1.95308578014373779 -1.22143185138702393
0.208310827612876892 1.36554253101348877 -1.1341627836227417
0.690192222595214844 2.47918128967285156 -1.14615535736083984
-0.288759708404541016 3.91102075576782227 -1.12369847297668457
0.0664158463478088379 2.71288394927978516 -1.19075191020965576
0.208424344658851624 1.37261486053466797 -1.13232183456420898
0.7523459792137146 3.5256960391998291 -1.09625053405761719
1.0943152904510498 2.6531522274017334 -1.09419536590576172
-0.0272209234535694122 2.43253374099731445 -1.17785322666168213
1.12005066871643066 2.62645387649536133 -1.0978546142578125
0.679978430271148682 2.18258547782897949 -1.0965583324432373
0.680310726165771484 2.18416881561279297 -1.09826469421386719
0.0984477847814559937 2.6426398754119873 -1.19480741024017334
-0.0709015056490898132 3.04629015922546387 -1.18229961395263672
-0.143839463591575623 2.21894001960754395 -1.21472346782684326
1.11321330070495605 2.62572574615478516 -1.06356644630432129
-0.363439261913299561 2.11371898651123047 -1.21866798400878906
0.0117602571845054626 2.43672680854797363 -1.18219840526580811
-1.09021508693695068 2.47566056251525879 -1.080344557762146
-1.0922696590423584 2.47430920600891113 -1.12681663036346436
-0.296980410814285278 3.90567469596862793 -1.11981558799743652
0.0395758599042892456 2.56167411804199219 -1.1788400411605835
0.744555115699768066 3.54888343811035156 -1.11418652534484863
-0.128131136298179626 2.48568201065063477 -1.16705000400543213
0.680478870868682861 2.20422458648681641 -1.1174616813659668
0.0364519171416759491 2.69207215309143066 -1.18225181102752686
0.122355908155441284 2.75254631042480469 -1.19953727722167969
-0.0833493694663047791 2.65720844268798828 -1.18554806709289551
0.149672478437423706 2.8380427360534668 -1.19633972644805908
0.677055060863494873 2.19216370582580566 -1.11503291130065918
0.0692722350358963013 2.8566279411315918 -1.1977226734161377
0.684351980686187744 2.1833198070526123 -1.09708917140960693
0.687748491764068604 2.18586325645446777 -1.08101904392242432
-0.344670861959457397 2.13757061958312988 -1.16492378711700439
-0.061606135219335556 2.38024210929870605 -1.20009422302246094
0.295149832963943481 3.05763077735900879 -1.11552190780639648
0.208256363868713379 1.40487182140350342 -1.12012004852294922
0.196629241108894348 1.3851546049118042 -1.13709938526153564
0.18118719756603241 1.37132871150970459 -1.14390826225280762
0.75255584716796875 3.53210163116455078 -1.09640181064605713
-0.0596622750163078308 2.46707820892333984 -1.19309782981872559
0.205127507448196411 1.3608403205871582 -1.12358367443084717
0.755467832088470459 3.53057694435119629 -1.09802055358886719
-1.08160984516143799 2.48229169845581055 -1.06392407417297363
0.6906890869140625 2.17991089820861816 -1.09159302711486816
1.13632833957672119 2.62761878967285156 -1.09770572185516357
1.02781486511230469 2.6819450855255127 -1.07987582683563232
0.110608994960784912 2.72810697555541992 -1.19663119316101074
-0.0169855132699012756 2.36804437637329102 -1.2036890983581543
0.244064226746559143 2.91145491600036621 -1.17644834518432617
