ply
format ascii 1.0
element vertex 256
comment vertices
property float x
property float y
property float z
end_header
1.10939657688140869 2.63604974746704102 -1.05371761322021484
-0.463529735803604126 4.86769914627075195 -0.360049396753311157
-1.75611722469329834 2.7197415828704834 -1.0957413911819458
-0.402593374252319336 1.99615144729614258 -1.25018668174743652
0.791696131229400635 4.23729372024536133 -0.977604269981384277
-0.61488032341003418 4.14337587356567383 -1.01449775695800781
-1.65328025817871094 3.67781329154968262 -0.332396119832992554
-0.0248867273330688477 2.7961733341217041 -1.17105841636657715
1.13217020034790039 3.58394646644592285 -0.428410112857818604
1.10016012191772461 3.39249348640441895 -1.15567910671234131
0.713306844234466553 4.79214239120483398 -0.156275659799575806
0.192220002412796021 2.5309145450592041 -1.24599099159240723
0.413906365633010864 4.8002467155456543 -0.398352593183517456
-1.04541826248168945 2.44124078750610352 -1.12527632713317871
0.233666077256202698 1.43015575408935547 -1.09625566005706787
-1.34797894954681396 3.4711613655090332 -1.14920663833618164
0.783829689025878906 3.45847964286804199 -1.09213995933532715
-1.32139110565185547 4.20421934127807617 -0.584931492805480957
1.23364138603210449 2.62193727493286133 -1.13881444931030273
-1.8278273344039917 2.83336782455444336 -0.770109891891479492
1.36749911308288574 4.19831562042236328 -0.91454237699508667
0.0640056729316711426 2.51948761940002441 -1.22369539737701416
1.00998020172119141 3.91792035102844238 -0.632277607917785645
0.0234472453594207764 2.68918585777282715 -1.18270087242126465
-0.331134527921676636 3.90996885299682617 -1.09852766990661621
0.622990965843200684 3.2898705005645752 -1.23927295207977295
0.176523298025131226 4.39791250228881836 -0.820567011833190918
0.963599503040313721 4.01383686065673828 -0.96851813793182373
0.686884224414825439 2.20319533348083496 -1.12328386306762695
0.631655454635620117 4.68172073364257812 -0.568827331066131592
-0.917727112770080566 4.27771282196044922 -0.775198578834533691
0.54048919677734375 4.45712423324584961 -0.529859006404876709
0.26494792103767395 4.84990501403808594 -0.485377371311187744
0.0270922929048538208 2.78805208206176758 -1.17835903167724609
0.0384600460529327393 3.01517581939697266 -1.16858828067779541
-0.465778350830078125 2.04253172874450684 -1.17626368999481201
1.16500091552734375 2.65421509742736816 -1.07359850406646729
-0.138843834400177002 2.14759159088134766 -1.25035953521728516
-0.895254671573638916 3.90587949752807617 -0.995229959487915039
-1.05863106250762939 3.71748638153076172 -0.774747848510742188
-1.31103610992431641 3.05676913261413574 -1.08690381050109863
-1.18584752082824707 4.16984939575195312 -0.207972705364227295
-1.19083726406097412 4.14962100982666016 -1.08105874061584473
1.23161566257476807 4.02807331085205078 -0.95485997200012207
0.887026429176330566 3.04522418975830078 -1.17684328556060791
0.539412498474121094 2.68373441696166992 -1.14813077449798584
-2.00471639633178711 2.68162655830383301 -0.585419654846191406
-0.843843936920166016 4.69109487533569336 -0.345368027687072754
1.79237806797027588 3.98963761329650879 -0.963930606842041016
-1.42725896835327148 2.84066987037658691 -1.17406678199768066
-1.1021798849105835 2.51677632331848145 -1.04201436042785645
0.203712522983551025 1.4839097261428833 -1.14484047889709473
0.631949543952941895 3.89818120002746582 -0.781172633171081543
0.853939175605773926 2.22116756439208984 -1.14668285846710205
-1.4324105978012085 4.43562173843383789 -0.645426154136657715
0.573757648468017578 4.82448053359985352 -0.644245684146881104
-0.152892500162124634 4.64770603179931641 -0.698636472225189209
-0.251205742359161377 2.53795099258422852 -1.15643692016601562
-0.19466167688369751 2.17131400108337402 -1.22579765319824219
0.166154265403747559 2.686614990234375 -1.20196533203125
0.723810076713562012 4.15723943710327148 -0.680465817451477051
-0.339917123317718506 3.85354757308959961 -1.17418503761291504
-0.0159683525562286377 2.76879644393920898 -1.19256150722503662
1.31429553031921387 4.13981866836547852 -0.163588345050811768
0.592993021011352539 4.08162212371826172 -0.758016467094421387
0.918833613395690918 4.36991691589355469 -0.222790181636810303
0.72681504487991333 3.55388665199279785 -1.08031511306762695
0.839484989643096924 2.43502950668334961 -1.10873842239379883
-1.20507431030273438 4.43180608749389648 -0.588482975959777832
0.892623066902160645 4.61873149871826172 -0.413287729024887085
-0.134595155715942383 2.34501504898071289 -1.18367552757263184
0.683127403259277344 2.21685194969177246 -1.10769248008728027
1.20115804672241211 4.41491127014160156 -0.949255168437957764
0.574869751930236816 4.19006872177124023 -0.921799302101135254
1.24196779727935791 4.33888006210327148 -0.812243223190307617
-1.12184262275695801 2.43844366073608398 -1.14574432373046875
0.157057702541351318 2.81314229965209961 -1.19100797176361084
0.666389942169189453 4.76425027847290039 -0.481571346521377563
-0.766666054725646973 4.09901285171508789 -0.965343236923217773
0.535970091819763184 2.33462905883789062 -1.17591750621795654
-1.43880200386047363 2.74433541297912598 -1.0247645378112793
1.13289487361907959 2.64100313186645508 -1.0615994930267334
1.05958461761474609 2.69721221923828125 -1.04146099090576172
-0.198065683245658875 3.7972257137298584 -1.13330447673797607
0.216202855110168457 4.36354207992553711 -0.760654747486114502
0.639184951782226562 4.70847702026367188 -0.371402442455291748
0.663628041744232178 4.21402168273925781 -0.637180984020233154
0.849958300590515137 3.50043559074401855 -1.07713043689727783
0.770227134227752686 3.52922606468200684 -1.12241899967193604
0.907111406326293945 4.4351038932800293 -0.531131386756896973
0.190639704465866089 1.3658517599105835 -1.13118302822113037
-0.0575098395347595215 4.90243864059448242 -0.363944977521896362
0.202193185687065125 4.99337863922119141 -0.188992232084274292
-0.0338203981518745422 2.73336911201477051 -1.17424726486206055
-0.807074427604675293 4.13111972808837891 -0.889549970626831055
-0.920724749565124512 3.61368012428283691 -1.07633781433105469
0.506151080131530762 1.88776481151580811 -1.15022873878479004
-1.02758395671844482 4.30883264541625977 -0.29415622353553772
-1.05100584030151367 2.53704547882080078 -1.12275540828704834
-0.280577331781387329 2.17308926582336426 -1.16712570190429688
0.121703937649726868 2.65792679786682129 -1.21529734134674072
1.39167952537536621 2.96612739562988281 -1.1568140983581543
1.21843671798706055 3.60764884948730469 -1.14040577411651611
-1.34320724010467529 3.89546442031860352 -0.427933454513549805
-0.283966571092605591 2.02145624160766602 -1.20659708976745605
-1.22646558284759521 3.58310389518737793 -1.10485959053039551
0.74673926830291748 2.82804059982299805 -1.12016606330871582
-1.13415718078613281 4.25928401947021484 -0.895869970321655273
0.660202264785766602 4.50030517578125 -0.781243443489074707
-0.118379652500152588 2.65624308586120605 -1.17027163505554199
0.822097957134246826 4.02140474319458008 -0.739194631576538086
-1.04943764209747314 3.76894736289978027 -1.01568853855133057
-1.08706164360046387 4.10748004913330078 -0.544783532619476318
-0.24519956111907959 2.35262370109558105 -1.1516033411026001
0.636164844036102295 4.73226213455200195 -0.620754241943359375
0.697694242000579834 2.27177119255065918 -1.13872337341308594
-1.16550850868225098 3.7165226936340332 -1.01936697959899902
-0.00153414648957550526 2.15394783020019531 -1.20954310894012451
-0.695402264595031738 2.21193552017211914 -1.16394186019897461
-0.292150199413299561 4.12025737762451172 -0.833344042301177979
0.618394076824188232 4.74130678176879883 -0.499636650085449219
-0.798615455627441406 4.16335439682006836 -0.650758624076843262
-0.370555490255355835 2.05924510955810547 -1.238899827003479
0.667192041873931885 3.9255530834197998 -0.939548969268798828
-0.81769484281539917 4.47025966644287109 -0.573211610317230225
1.24464023113250732 4.0825657844543457 -0.491771578788757324
-0.969246983528137207 3.91533851623535156 -1.04635322093963623
-0.965615391731262207 3.00691843032836914 -1.21718955039978027
1.0436089038848877 4.31082725524902344 -0.848216414451599121
-1.93994760513305664 2.78484487533569336 -0.685847699642181396
0.013226720504462719 2.89090704917907715 -1.17200100421905518
-1.04083478450775146 3.54585123062133789 -0.82416379451751709
0.974800229072570801 2.44487428665161133 -1.16158890724182129
1.20491743087768555 4.11292266845703125 -0.887238383293151855
-0.32049223780632019 3.92790508270263672 -1.13420772552490234
0.227077975869178772 1.40318524837493896 -1.12646389007568359
0.726564466953277588 4.78846263885498047 -0.292456120252609253
0.0754620060324668884 2.59285807609558105 -1.17875087261199951
0.667037129402160645 2.23962640762329102 -1.11199963092803955
0.782806217670440674 3.95694780349731445 -1.00456357002258301
0.863682329654693604 3.93371105194091797 -0.840522944927215576
0.300134420394897461 2.93648958206176758 -1.17935776710510254
1.24261927604675293 3.1689908504486084 -1.16596651077270508
0.600324928760528564 2.77823090553283691 -1.14520382881164551
0.468729496002197266 4.00812101364135742 -0.942211270332336426
0.945779740810394287 4.69515466690063477 -0.416930526494979858
-1.83985865116119385 3.22580122947692871 -0.540071010589599609
1.14725708961486816 3.64353799819946289 -0.529512941837310791
-1.12538766860961914 4.62627792358398438 -0.401524960994720459
-0.342846602201461792 2.02952146530151367 -1.24360370635986328
-1.61198616027832031 3.33892345428466797 -0.602653682231903076
0.208759337663650513 3.82024788856506348 -0.770205497741699219
0.213364481925964355 1.41381168365478516 -1.12375950813293457
-0.767005443572998047 4.1242527961730957 -0.930135846138000488
0.746541321277618408 2.56830835342407227 -1.16008412837982178
-0.366441190242767334 3.9191291332244873 -1.11639618873596191
0.0429599583148956299 2.76191902160644531 -1.18700742721557617
1.19520246982574463 4.11935329437255859 -0.328239381313323975
0.215123772621154785 1.43381834030151367 -1.12756788730621338
0.748454391956329346 3.5626366138458252 -1.11136329174041748
-1.23428857326507568 3.70128798484802246 -0.798841595649719238
1.62447440624237061 4.09927606582641602 -0.963823437690734863
0.447209388017654419 4.18109512329101562 -0.68732917308807373
0.454108119010925293 4.77928781509399414 -0.427042186260223389
1.05035495758056641 2.67509150505065918 -1.15926003456115723
-0.0227232277393341064 2.4262840747833252 -1.1923900842666626
0.937540411949157715 3.76275420188903809 -0.512993931770324707
1.14901340007781982 2.61958527565002441 -1.11828827857971191
0.680886387825012207 2.19193458557128906 -1.08637881278991699
-0.793689310550689697 4.76577472686767578 -0.262481063604354858
0.682535707950592041 2.2373356819152832 -1.0947258472442627
-1.13378739356994629 4.70816135406494141 -0.521646380424499512
0.871077954769134521 4.19213676452636719 -0.917500913143157959
1.23469018936157227 4.23944997787475586 -0.0936309099197387695
1.19905388355255127 4.08435201644897461 -0.56721264123916626
0.10751679539680481 2.66932225227355957 -1.19146084785461426
-0.0745534449815750122 3.12767601013183594 -1.16422629356384277
-0.605236053466796875 4.43988466262817383 -0.80196535587310791
-0.159622609615325928 2.21867799758911133 -1.2335822582244873
-1.29094564914703369 3.59282922744750977 -1.01345384120941162
0.0712781846523284912 4.97949934005737305 -0.271178871393203735
0.57585453987121582 4.24357032775878906 -0.923477351665496826
1.12488603591918945 2.6582634449005127 -1.05023562908172607
-1.50953924655914307 2.8474273681640625 -0.990110993385314941
-1.00241279602050781 4.3230438232421875 -0.410545527935028076
-0.331371426582336426 2.15978431701660156 -1.24073827266693115
-0.219629257917404175 4.94250297546386719 -0.257124900817871094
0.809613347053527832 4.58416032791137695 -0.349338918924331665
0.881222128868103027 3.72448992729187012 -0.762221336364746094
-0.262084126472473145 4.15734434127807617 -0.880425035953521729
0.21986737847328186 4.21584701538085938 -0.714442193508148193
0.033580392599105835 2.43700098991394043 -1.20316565036773682
-1.07125473022460938 2.4229884147644043 -1.04792952537536621
0.717450916767120361 4.74452733993530273 -0.442919939756393433
0.939314603805541992 4.5524754524230957 -0.48182988166809082
0.0563334226608276367 4.54500818252563477 -0.692885398864746094
-1.08348524570465088 2.48589992523193359 -1.14783644676208496
0.0334120169281959534 4.95404243469238281 -0.39093858003616333
-0.317964375019073486 3.92749905586242676 -1.11799764633178711
0.719164371490478516 4.7434234619140625 -0.494730353355407715
0.809614598751068115 4.06168031692504883 -0.795589923858642578
0.0186147093772888184 2.56804609298706055 -1.17702245712280273
-0.872514486312866211 4.42451381683349609 -0.446880936622619629
0.329014092683792114 4.15381431579589844 -0.844408631324768066
0.747441470623016357 3.37381196022033691 -1.16149234771728516
-0.182639062404632568 2.54085159301757812 -1.15872395038604736
0.635741889476776123 2.2013084888458252 -1.15387070178985596
0.517655372619628906 4.41501140594482422 -0.76276397705078125
-0.00692921876907348633 2.72901487350463867 -1.1794658899307251
0.37248915433883667 4.53187847137451172 -0.473093241453170776
0.135538041591644287 2.8084414005279541 -1.20749616622924805
0.897187650203704834 4.53656578063964844 -0.538915634155273438
-0.148544996976852417 2.70057010650634766 -1.19162499904632568
0.874187111854553223 4.14338159561157227 -0.562402129173278809
0.167767345905303955 2.91036224365234375 -1.19844520092010498
0.679100394248962402 2.22663497924804688 -1.14120709896087646
0.421591073274612427 4.70496416091918945 -0.665226936340332031
-0.809432387351989746 4.56569862365722656 -0.688519597053527832
0.0302551984786987305 2.93213248252868652 -1.19648599624633789
0.696637094020843506 2.17222023010253906 -1.09152936935424805
-1.052712082862854 3.46516561508178711 -1.18067622184753418
0.60038071870803833 4.87531089782714844 -0.341605186462402344
0.485683530569076538 4.57890605926513672 -0.328746497631072998
-0.435617178678512573 4.22697734832763672 -0.891005516052246094
-1.35960865020751953 3.92551374435424805 -0.295277714729309082
0.702803909778594971 2.25147485733032227 -1.05413234233856201
-0.288469702005386353 2.18446183204650879 -1.13351356983184814
-0.01366405189037323 2.38201761245727539 -1.21903669834136963
-1.13650548458099365 3.99811553955078125 -1.00942826271057129
0.294678151607513428 3.09384894371032715 -1.07646274566650391
0.223300829529762268 1.51783668994903564 -1.13736140727996826
0.182913705706596375 1.46635341644287109 -1.15318608283996582
0.0580147653818130493 1.39296829700469971 -1.17194688320159912
-0.730276823043823242 4.15600204467773438 -0.649610757827758789
-0.408479094505310059 4.27735805511474609 -0.783661484718322754
0.753314077854156494 3.54861783981323242 -1.10000252723693848
-0.0852760672569274902 2.47149467468261719 -1.21569287776947021
0.191303566098213196 1.378700852394104 -1.09316027164459229
0.703309416770935059 3.57988476753234863 -1.12118995189666748
0.999259352684020996 3.83248186111450195 -0.992641329765319824
-1.12743401527404785 3.28626227378845215 -1.23339807987213135
-1.06297361850738525 2.54598498344421387 -1.02904736995697021
-1.24345779418945312 4.25615644454956055 -0.922368288040161133
1.20624923706054688 4.03058290481567383 -0.48897242546081543
0.861980199813842773 4.68089199066162109 -0.433810949325561523
-1.32310211658477783 3.66902875900268555 -1.01443386077880859
-0.503730297088623047 4.59857797622680664 -0.485505640506744385
0.4467010498046875 4.38860654830932617 -0.54913640022277832
0.709552586078643799 2.22783780097961426 -1.07461142539978027
-0.0427306592464447021 4.17251157760620117 -0.817624568939208984
1.18408739566802979 2.70102334022521973 -1.13289093971252441
0.802719235420227051 2.68241310119628906 -1.10964798927307129
0.625108301639556885 4.78333377838134766 -0.501787543296813965
0.115159742534160614 2.77379179000854492 -1.2059098482131958
0.0407583378255367279 2.37488532066345215 -1.22928202152252197
0.289586037397384644 2.99699950218200684 -1.14170289039611816
