ply
format ascii 1.0
element vertex 256
comment vertices
property float x
property float y
property float z
end_header
1.10810637474060059 2.62639260292053223 -1.06548571586608887
-0.545356035232543945 4.46892166137695312 -0.424451321363449097
-2.27882623672485352 2.39773082733154297 -1.11420011520385742
-0.514653265476226807 1.90157043933868408 -1.21810436248779297
0.84673464298248291 4.13952732086181641 -1.04274296760559082
-0.505644738674163818 3.6210930347442627 -1.08685111999511719
-1.79217720031738281 3.14790987968444824 -0.256406962871551514
0.027869146317243576 2.73564815521240234 -1.17570948600769043
1.87884962558746338 1.0471796989440918 -1.00179791450500488
0.975189864635467529 3.4109351634979248 -1.13266444206237793
0.784788370132446289 4.77628660202026367 -0.220789670944213867
0.135226145386695862 2.53667497634887695 -1.19946658611297607
0.547401547431945801 4.57843399047851562 -0.376663416624069214
-1.08498632907867432 2.47578763961791992 -1.1192469596862793
0.217236697673797607 1.37417197227478027 -1.11798191070556641
-2.08539724349975586 2.63211321830749512 -1.26758933067321777
0.729321718215942383 3.55677604675292969 -1.08667397499084473
-1.64597463607788086 3.26959133148193359 -0.749265432357788086
1.14848077297210693 2.62062668800354004 -1.09789550304412842
-1.88763725757598877 0.92802727222442627 -1.14171743392944336
1.61489593982696533 4.08222484588623047 -0.988830506801605225
0.028506644070148468 2.52015948295593262 -1.19334161281585693
1.50281524658203125 2.71855998039245605 -1.07276535034179688
0.0538574531674385071 2.65737533569335938 -1.18642747402191162
-0.290508925914764404 3.90711712837219238 -1.11870074272155762
0.704256594181060791 3.47599530220031738 -1.12056505680084229
0.225845754146575928 3.46166467666625977 -1.209555983543396
0.764227151870727539 3.85611438751220703 -1.05211567878723145
0.679754793643951416 2.18882203102111816 -1.10897350311279297
0.746216356754302979 4.4778294563293457 -0.557492971420288086
-1.00235700607299805 3.4003598690032959 -1.05420589447021484
0.762819170951843262 3.98413300514221191 -0.632597923278808594
0.241717472672462463 4.74217796325683594 -0.362293094396591187
0.0635775774717330933 2.72939872741699219 -1.17843830585479736
0.103158779442310333 2.94550752639770508 -1.18464696407318115
-0.488368868827819824 1.97058439254760742 -1.17496287822723389
1.12806785106658936 2.6183316707611084 -1.07562649250030518
-0.191579446196556091 2.140533447265625 -1.22438240051269531
-0.862051427364349365 3.01852583885192871 -1.16305398941040039
-1.01925623416900635 3.34457159042358398 -1.00302660465240479
-1.38823699951171875 2.79956293106079102 -1.16801273822784424
-1.26042544841766357 3.74015450477600098 -0.138830214738845825
-1.78692317008972168 3.86909890174865723 -1.14401900768280029
1.56269550323486328 3.62679719924926758 -1.08935105800628662
0.85831683874130249 3.07629084587097168 -1.12034428119659424
0.515947341918945312 2.68069052696228027 -1.12800300121307373
-2.62898755073547363 -0.145265817642211914 -1.16364121437072754
-0.756145775318145752 4.28854608535766602 -0.27772897481918335
2.87974071502685547 2.84959149360656738 -1.129447340965271
-1.71679675579071045 1.98308420181274414 -1.23612439632415771
-1.09506571292877197 2.47678422927856445 -1.07356476783752441
0.201210618019104004 1.38977265357971191 -1.13056743144989014
0.504151225090026855 2.48611307144165039 -1.18995356559753418
0.707572460174560547 2.18369078636169434 -1.10115325450897217
-2.98393821716308594 3.91556358337402344 -0.999496698379516602
0.850610792636871338 4.84801912307739258 -0.704590439796447754
-0.412123829126358032 3.52562189102172852 -1.11816310882568359
-0.265002906322479248 2.50643348693847656 -1.15410935878753662
-0.24525982141494751 2.15002274513244629 -1.21191489696502686
0.121914207935333252 2.65449714660644531 -1.19789266586303711
0.871136605739593506 4.1832423210144043 -0.925256133079528809
-0.303376913070678711 3.90633749961853027 -1.12817287445068359
0.0362094268202781677 2.72083854675292969 -1.18124604225158691
1.47253608703613281 3.89420437812805176 -0.0106044858694076538
0.664544343948364258 3.34097409248352051 -1.06883645057678223
1.59538793563842773 3.25399136543273926 -0.387271761894226074
0.757020413875579834 3.5259709358215332 -1.09916281700134277
0.765146076679229736 2.28111505508422852 -1.08690249919891357
-1.38667631149291992 3.3723444938659668 -0.781621932983398438
1.10868704319000244 4.47694969177246094 -0.521398782730102539
-0.115938208997249603 2.32687950134277344 -1.18377101421356201
0.678862094879150391 2.18666553497314453 -1.10329353809356689
1.29149758815765381 4.51180362701416016 -1.00388026237487793
0.665340542793273926 3.97126364707946777 -1.05576539039611816
1.39115190505981445 4.27532529830932617 -0.866345047950744629
-1.0965421199798584 2.47287988662719727 -1.12919950485229492
0.135191544890403748 2.76153349876403809 -1.19792461395263672
1.05882525444030762 4.13162612915039062 -0.722014784812927246
-0.720006227493286133 3.70583963394165039 -1.05939817428588867
0.684549510478973389 2.21224117279052734 -1.10801815986633301
-1.61651694774627686 1.51327657699584961 -1.19018256664276123
1.11772894859313965 2.62436032295227051 -1.06916999816894531
1.08963930606842041 2.64304208755493164 -1.05203282833099365
-0.294613271951675415 3.89774489402770996 -1.12752056121826172
-0.28310808539390564 2.84049034118652344 -1.19837629795074463
0.784435510635375977 4.26731348037719727 -0.356098204851150513
0.885491371154785156 3.74448275566101074 -0.978488385677337646
0.714761674404144287 3.54716777801513672 -1.09107410907745361
0.738990426063537598 3.5499577522277832 -1.0957108736038208
0.979945659637451172 4.27367830276489258 -0.650915384292602539
0.208905667066574097 1.35265648365020752 -1.14364016056060791
0.153359889984130859 4.93629646301269531 -0.430593430995941162
0.573667943477630615 4.61466598510742188 0.000672519207000732422
0.0322074666619300842 2.68931865692138672 -1.16459381580352783
-0.87145233154296875 3.72641372680664062 -1.02030408382415771
-0.409704506397247314 2.98411846160888672 -1.2135545015335083
0.499695390462875366 1.85908782482147217 -1.14992892742156982
-1.06409752368927002 3.79611682891845703 -0.323539853096008301
-1.08257532119750977 2.47790193557739258 -1.1085200309753418
-0.334059238433837891 2.12375736236572266 -1.17724108695983887
0.103682428598403931 2.63825654983520508 -1.20123374462127686
1.56966984272003174 2.91032600402832031 -1.11294460296630859
1.09959316253662109 3.66962838172912598 -1.14034676551818848
-1.24485433101654053 2.71075010299682617 -0.579038023948669434
-0.338983386754989624 1.9693446159362793 -1.19930076599121094
-1.45392394065856934 2.67131257057189941 -1.21235537528991699
0.678795456886291504 2.80703234672546387 -1.12163853645324707
-1.50664889812469482 4.27357053756713867 -1.02083408832550049
0.874470233917236328 4.26057100296020508 -0.932199954986572266
-0.0409314334392547607 2.59624981880187988 -1.17061078548431396
0.825078129768371582 4.09943437576293945 -0.950497984886169434
-0.991952300071716309 3.60158276557922363 -1.10633695125579834
-0.832424521446228027 2.29661393165588379 -0.838935971260070801
-0.234502926468849182 2.29294228553771973 -1.17134618759155273
0.998419284820556641 4.64518451690673828 -0.758737266063690186
0.685814082622528076 2.19043779373168945 -1.11133849620819092
-1.39764857292175293 3.27599811553955078 -1.13667464256286621
-0.0251578912138938904 2.17976284027099609 -1.19044196605682373
-0.925553321838378906 2.19333791732788086 -1.18140888214111328
0.143842756748199463 2.02668428421020508 -1.25381374359130859
0.654916048049926758 4.45892238616943359 -0.492544770240783691
-0.564044356346130371 2.89134335517883301 -1.01848649978637695
-0.45127713680267334 1.98087334632873535 -1.21606063842773438
0.623927772045135498 2.75321817398071289 -1.23576951026916504
-0.513298273086547852 3.44931936264038086 -0.865882992744445801
1.60625231266021729 3.6552577018737793 -0.60968315601348877
-0.997970402240753174 3.51705169677734375 -1.11392450332641602
-0.390481829643249512 2.24662542343139648 -1.31989598274230957
0.907530546188354492 4.20952033996582031 -0.979873359203338623
-2.40324568748474121 0.777138233184814453 -1.11530232429504395
0.0489624328911304474 2.80919575691223145 -1.18781828880310059
-0.936507225036621094 2.03479290008544922 -1.18475544452667236
1.09831297397613525 2.62680745124816895 -1.085044264793396
1.30167663097381592 3.97479724884033203 -0.960792779922485352
-0.298430919647216797 3.90718698501586914 -1.12083029747009277
0.213711276650428772 1.35944712162017822 -1.13756072521209717
0.622794508934020996 4.86215782165527344 -0.308016121387481689
0.0676228627562522888 2.5581200122833252 -1.18683373928070068
0.675753474235534668 2.18730664253234863 -1.10491287708282471
0.463234454393386841 3.57785606384277344 -1.09798622131347656
0.751809179782867432 3.81362390518188477 -1.00142478942871094
0.237686485052108765 2.85791850090026855 -1.19129312038421631
1.23564136028289795 3.17354321479797363 -1.12423563003540039
0.60406804084777832 2.77764058113098145 -1.14693737030029297
0.0032323002815246582 3.06132292747497559 -1.16302990913391113
1.17646610736846924 4.67233133316040039 -0.468335449695587158
-2.51960849761962891 1.49057638645172119 -0.874579548835754395
1.8418121337890625 0.97009730339050293 -1.0895688533782959
-1.13221991062164307 3.6127018928527832 -0.507607936859130859
-0.421078652143478394 1.95308578014373779 -1.22143185138702393
-1.23002398014068604 1.1759793758392334 -1.08467793464660645
0.208665430545806885 1.13386416435241699 -1.19190120697021484
0.208310827612876892 1.36554253101348877 -1.1341627836227417
-0.749358773231506348 3.66907644271850586 -1.04923367500305176
0.690192222595214844 2.47918128967285156 -1.14615535736083984
-0.288759708404541016 3.91102075576782227 -1.12369847297668457
0.0664158463478088379 2.71288394927978516 -1.19075191020965576
1.52331018447875977 3.70787382125854492 -0.313597589731216431
0.208424344658851624 1.37261486053466797 -1.13232183456420898
0.7523459792137146 3.5256960391998291 -1.09625053405761719
-1.63021659851074219 3.19633150100708008 -1.03586113452911377
2.48076128959655762 3.39333939552307129 -1.08663439750671387
0.366584360599517822 3.20007681846618652 -1.1071784496307373
0.562130093574523926 4.57976627349853516 -0.399720728397369385
1.0943152904510498 2.6531522274017334 -1.09419536590576172
-0.0272209234535694122 2.43253374099731445 -1.17785322666168213
0.942252933979034424 2.09298563003540039 -1.03282225131988525
1.12005066871643066 2.62645387649536133 -1.0978546142578125
0.679978430271148682 2.18258547782897949 -1.0965583324432373
-0.889601767063140869 4.37328290939331055 -0.16807141900062561
0.680310726165771484 2.18416881561279297 -1.09826469421386719
-0.972460448741912842 4.27519321441650391 -0.574323594570159912
0.876587033271789551 4.17117881774902344 -1.00627577304840088
1.22664105892181396 4.10301399230957031 0.117974355816841125
1.54957818984985352 3.48025131225585938 -0.738812088966369629
0.0984477847814559937 2.6426398754119873 -1.19480741024017334
-0.0709015056490898132 3.04629015922546387 -1.18229961395263672
-0.852422952651977539 4.09408664703369141 -0.945367932319641113
-0.143839463591575623 2.21894001960754395 -1.21472346782684326
-1.58189690113067627 2.61025762557983398 -1.18051660060882568
0.438517987728118896 4.67924690246582031 -0.121570676565170288
0.705066442489624023 4.05754995346069336 -1.04377532005310059
1.11321330070495605 2.62572574615478516 -1.06356644630432129
-1.72590696811676025 2.76529097557067871 -1.10927867889404297
-0.845991671085357666 3.15651774406433105 -0.684216558933258057
-0.363439261913299561 2.11371898651123047 -1.21866798400878906
0.0104845017194747925 4.81006669998168945 -0.233291298151016235
0.976875543594360352 4.42215442657470703 -0.473196864128112793
0.774052977561950684 2.38661956787109375 -1.10184049606323242
-0.102301433682441711 2.29583024978637695 -1.24506020545959473
0.363281548023223877 2.18686699867248535 -1.3425745964050293
0.0117602571845054626 2.43672680854797363 -1.18219840526580811
-1.09021508693695068 2.47566056251525879 -1.080344557762146
0.884593009948730469 4.67670202255249023 -0.500996232032775879
1.8099825382232666 3.88743114471435547 -0.665501534938812256
-0.403870433568954468 3.31975698471069336 -1.14823555946350098
-1.0922696590423584 2.47430920600891113 -1.12681663036346436
0.164093255996704102 4.93663120269775391 -0.419981211423873901
-0.296980410814285278 3.90567469596862793 -1.11981558799743652
1.0826270580291748 4.48578786849975586 -0.698050498962402344
0.823007881641387939 4.1198124885559082 -0.966017425060272217
0.0395758599042892456 2.56167411804199219 -1.1788400411605835
-0.810558438301086426 3.49710488319396973 -0.59133380651473999
0.12657734751701355 3.27928447723388672 -1.12952196598052979
0.744555115699768066 3.54888343811035156 -1.11418652534484863
-0.128131136298179626 2.48568201065063477 -1.16705000400543213
0.680478870868682861 2.20422458648681641 -1.1174616813659668
0.528440415859222412 4.16589784622192383 -0.977949798107147217
0.0364519171416759491 2.69207215309143066 -1.18225181102752686
0.458050727844238281 3.78806471824645996 -0.620702385902404785
0.122355908155441284 2.75254631042480469 -1.19953727722167969
1.91958808898925781 3.40987110137939453 -0.834402859210968018
-0.0833493694663047791 2.65720844268798828 -1.18554806709289551
1.25326299667358398 3.05272269248962402 -0.896347999572753906
0.149672478437423706 2.8380427360534668 -1.19633972644805908
0.677055060863494873 2.19216370582580566 -1.11503291130065918
0.547565579414367676 4.64570474624633789 -0.742624223232269287
-0.808976948261260986 3.77992081642150879 -0.906119346618652344
0.0692722350358963013 2.8566279411315918 -1.1977226734161377
0.684351980686187744 2.1833198070526123 -1.09708917140960693
-0.886543035507202148 3.16296601295471191 -1.2105635404586792
0.595374166965484619 4.92036533355712891 -0.37272682785987854
0.691714167594909668 4.25394773483276367 -0.356482535600662231
-0.60243988037109375 3.36920261383056641 -1.1346282958984375
-1.57369804382324219 3.50875735282897949 -0.247893437743186951
0.687748491764068604 2.18586325645446777 -1.08101904392242432
-0.344670861959457397 2.13757061958312988 -1.16492378711700439
-0.061606135219335556 2.38024210929870605 -1.20009422302246094
-1.24134790897369385 3.9065711498260498 -1.09147202968597412
0.295149832963943481 3.05763077735900879 -1.11552190780639648
0.208256363868713379 1.40487182140350342 -1.12012004852294922
0.196629241108894348 1.3851546049118042 -1.13709938526153564
0.18118719756603241 1.37132871150970459 -1.14390826225280762
-0.501876890659332275 2.67109227180480957 -1.05826044082641602
-0.0806128084659576416 3.53011512756347656 -1.04516839981079102
0.75255584716796875 3.53210163116455078 -1.09640181064605713
-0.0596622750163078308 2.46707820892333984 -1.19309782981872559
0.205127507448196411 1.3608403205871582 -1.12358367443084717
0.755467832088470459 3.53057694435119629 -1.09802055358886719
0.838226318359375 3.22920536994934082 -1.15810954570770264
-1.18295443058013916 2.76467633247375488 -1.23212933540344238
-1.08160984516143799 2.48229169845581055 -1.06392407417297363
-1.73499107360839844 4.36672830581665039 -1.03951990604400635
1.65568661689758301 3.27202749252319336 -0.69207155704498291
1.63612663745880127 4.15473747253417969 -0.688546299934387207
-1.71288049221038818 3.10595154762268066 -1.13005685806274414
-0.449198871850967407 3.37827467918395996 -0.75490725040435791
0.620213568210601807 3.20003271102905273 -0.839992702007293701
0.6906890869140625 2.17991089820861816 -1.09159302711486816
0.430959492921829224 2.49434900283813477 -1.24289572238922119
1.13632833957672119 2.62761878967285156 -1.09770572185516357
1.02781486511230469 2.6819450855255127 -1.07987582683563232
1.07234036922454834 4.53380966186523438 -0.709552288055419922
0.110608994960784912 2.72810697555541992 -1.19663119316101074
-0.0169855132699012756 2.36804437637329102 -1.2036890983581543
0.244064226746559143 2.91145491600036621 -1.17644834518432617
