ply
format ascii 1.0
element vertex 256
comment vertices
property float x
property float y
property float z
end_header
1.03944194316864014 -0.989629149436950684 3.7234501838684082
-0.609045863151550293 -0.532759964466094971 1.74762642383575439
0.164232611656188965 -1.5667109489440918 2.54656767845153809
1.69903087615966797 -0.137171745300292969 2.28087615966796875
-0.389460891485214233 -0.0364499017596244812 2.58682632446289062
-2.09566402435302734 -0.809764742851257324 2.11319899559020996
1.42712616920471191 0.0255104899406433105 3.19106578826904297
-0.0987526476383209229 -0.838370919227600098 3.72964859008789062
0.55358964204788208 -0.263379365205764771 2.23611760139465332
0.401858985424041748 0.32214123010635376 2.08980584144592285
0.837697803974151611 0.0860379412770271301 3.11448836326599121
0.290930122137069702 -1.38365709781646729 3.70404744148254395
1.74539756774902344 -1.58942627906799316 3.45527982711791992
0.71917194128036499 -0.710377156734466553 3.43712615966796875
-0.648864686489105225 -0.39655458927154541 3.22060704231262207
1.73008179664611816 -0.524719595909118652 3.69447803497314453
-0.384712874889373779 0.112472720444202423 2.57612800598144531
1.43576610088348389 -0.164467394351959229 3.22718596458435059
-0.998128116130828857 -2.72672414779663086 3.24232077598571777
-0.288840353488922119 0.0303760543465614319 2.43232369422912598
0.210326626896858215 0.134685873985290527 2.25845575332641602
-0.779746830463409424 -0.918324053287506104 3.59897708892822266
-0.459640681743621826 0.00874666683375835419 2.60046648979187012
0.22428479790687561 0.151274546980857849 2.41407060623168945
1.42099928855895996 0.0565801262855529785 3.17338037490844727
-0.476185232400894165 -1.32874667644500732 3.63648605346679688
0.729864120483398438 -0.182848900556564331 2.47652840614318848
0.96856766939163208 -1.47598016262054443 3.7087407112121582
0.618694841861724854 -0.0227294862270355225 2.11015605926513672
1.33821296691894531 -0.199999034404754639 3.3882603645324707
-0.00535741634666919708 -0.171106725931167603 3.35802745819091797
-0.480471968650817871 -2.52985668182373047 2.27479004859924316
0.534289658069610596 -1.08563172817230225 3.78981542587280273
0.140881240367889404 0.111330971121788025 2.18850159645080566
1.27551352977752686 -1.3701322078704834 3.39833903312683105
0.565593600273132324 -0.728529512882232666 2.76431632041931152
-0.508557677268981934 -0.00115673430263996124 2.59826278686523438
0.0968015193939208984 0.331781923770904541 2.14685225486755371
0.892954051494598389 0.197682291269302368 3.12015271186828613
0.223021343350410461 0.115394569933414459 2.1987001895904541
1.52559077739715576 -1.17400074005126953 3.67974972724914551
1.42629265785217285 -0.268747985363006592 3.41256618499755859
0.24850916862487793 -0.671417832374572754 3.85398507118225098
1.22970306873321533 -0.133253186941146851 3.21047210693359375
-0.317957967519760132 -0.130508631467819214 2.79955887794494629
0.114459052681922913 -1.21946132183074951 3.81276893615722656
0.104151338338851929 0.0801416188478469849 2.38661932945251465
-0.060705818235874176 0.30181509256362915 2.37587404251098633
-0.680516481399536133 -0.716061651706695557 3.81283068656921387
-0.422434151172637939 0.00241312384605407715 2.53436398506164551
1.30494189262390137 -0.584918737411499023 3.73518133163452148
0.671312868595123291 0.0254561677575111389 2.94923830032348633
0.542434632778167725 -0.568443894386291504 2.4667816162109375
-0.847722232341766357 -0.86811298131942749 3.29572439193725586
-0.330515354871749878 -0.0234981272369623184 2.71778345108032227
-0.666075646877288818 -1.22034084796905518 3.41493749618530273
0.626100659370422363 0.442522972822189331 2.25899815559387207
0.315742671489715576 -1.29044437408447266 3.824554443359375
0.180933237075805664 0.133633553981781006 2.03282666206359863
-0.672380805015563965 0.0745324790477752686 2.45414090156555176
0.728886306285858154 -1.42843294143676758 3.66743898391723633
-0.599576592445373535 -0.993246495723724365 3.71405911445617676
1.34162425994873047 -0.114599205553531647 3.26450610160827637
-0.372035801410675049 0.109111085534095764 2.53606033325195312
0.6916084885597229 -0.545129120349884033 2.31177091598510742
0.430478096008300781 -0.654184699058532715 3.36498761177062988
-0.0744245946407318115 -1.54122531414031982 3.76777958869934082
1.38526201248168945 -0.255872458219528198 3.3694908618927002
-0.934527158737182617 -0.0942101180553436279 2.35387873649597168
-0.48127630352973938 -1.39143991470336914 2.21472048759460449
0.194606289267539978 0.109198600053787231 2.39524435997009277
-0.311381220817565918 -0.487272560596466064 3.61797523498535156
-1.48656392097473145 -0.368490070104598999 2.13620734214782715
-0.710566163063049316 -0.0117149427533149719 2.26862263679504395
0.655594885349273682 -0.81740182638168335 3.76865553855895996
0.19617307186126709 0.140126556158065796 2.16034746170043945
0.844628691673278809 0.0618174336850643158 3.15317082405090332
0.0603201165795326233 -0.953677773475646973 3.83886432647705078
-0.59315192699432373 -1.32980167865753174 3.55428385734558105
-0.459454715251922607 -0.0923109427094459534 2.64117932319641113
1.19607579708099365 -1.34393799304962158 3.48270702362060547
1.35021471977233887 -0.215558081865310669 3.33880400657653809
1.79108679294586182 -1.51347470283508301 3.6440587043762207
-0.784209787845611572 -1.08377242088317871 3.39964771270751953
0.27667003870010376 0.136217698454856873 2.37900090217590332
0.0387011803686618805 -0.601107537746429443 3.72926735877990723
1.82148730754852295 0.510956943035125732 2.65363121032714844
-0.7885933518409729 -0.642557024955749512 3.45690584182739258
0.161256521940231323 -0.919404983520507812 3.92382669448852539
0.78047412633895874 -0.373020172119140625 2.24718618392944336
-0.498642951250076294 -0.00324648246169090271 2.55019593238830566
0.417050600051879883 0.0313864275813102722 2.6534278392791748
1.11147034168243408 0.102661348879337311 3.33085942268371582
0.19036276638507843 0.125414326786994934 2.2607884407043457
-0.310926645994186401 -0.0322141014039516449 2.88461875915527344
-0.546478331089019775 -0.899271488189697266 2.47217512130737305
0.262645840644836426 0.0527736246585845947 2.24959444999694824
-0.419233620166778564 -0.00532907061278820038 2.55004382133483887
-0.462143778800964355 0.040698077529668808 2.45444536209106445
1.37385225296020508 -0.249473035335540771 3.37754034996032715
1.7716519832611084 -0.826773226261138916 3.69050884246826172
0.554929971694946289 -1.34456205368041992 3.76830601692199707
0.470141708850860596 -0.51891624927520752 2.52470159530639648
0.42825084924697876 -1.57188451290130615 2.24795079231262207
1.35752224922180176 0.0896859467029571533 3.11980915069580078
0.188500851392745972 0.113282755017280579 2.23429632186889648
1.17676520347595215 -0.661952197551727295 3.62023305892944336
0.903105854988098145 -1.12685477733612061 3.84053993225097656
1.70824778079986572 -1.45515143871307373 3.64141297340393066
1.40621769428253174 -0.158030033111572266 3.2369534969329834
-0.049410700798034668 0.134192153811454773 2.41608047485351562
-0.16749882698059082 -1.40855765342712402 3.6769099235534668
-0.429413348436355591 0.00845609884709119797 2.54790282249450684
0.175921082496643066 0.129218488931655884 2.16560554504394531
-0.634994328022003174 -1.36156225204467773 3.47511601448059082
0.229583144187927246 -1.32952046394348145 3.79602551460266113
-0.441302776336669922 0.0152746010571718216 2.57842493057250977
1.34067046642303467 -1.3008122444152832 3.54322218894958496
0.306785345077514648 0.0853383317589759827 2.29381656646728516
-0.2409067302942276 0.117440104484558105 2.45611858367919922
-0.701620876789093018 -1.19159221649169922 3.58858680725097656
1.17408955097198486 -0.154086053371429443 2.18319559097290039
-0.572041153907775879 0.00881256163120269775 2.58386802673339844
-0.427021175622940063 -0.887581467628479004 3.76701068878173828
-0.655423879623413086 -1.22488892078399658 3.45372939109802246
1.68834233283996582 -0.820767104625701904 3.67864847183227539
0.543803870677947998 -0.741132378578186035 3.65511655807495117
0.0673446506261825562 0.20544840395450592 2.16112661361694336
0.220111832022666931 0.161750331521034241 2.10804510116577148
-0.272904396057128906 -0.0579169802367687225 2.5827631950378418
-0.318282365798950195 -0.983620285987854004 3.80655050277709961
0.20128612220287323 0.131893768906593323 2.17274093627929688
-0.498527318239212036 0.0448389947414398193 2.55499958992004395
1.07886528968811035 -0.00781160593032836914 3.22533345222473145
1.652168869972229 -1.35218620300292969 3.625732421875
0.0846961289644241333 0.147796899080276489 2.07628607749938965
1.18012428283691406 -1.16735160350799561 3.51349067687988281
0.0177329033613204956 0.0824978500604629517 2.32744002342224121
1.28542542457580566 -0.866133034229278564 3.74193096160888672
0.714002847671508789 -3.56913948059082031 3.16664767265319824
1.26102542877197266 0.0388831049203872681 3.19292092323303223
-0.648757636547088623 -0.857706069946289062 3.77605152130126953
1.38624358177185059 -0.196126505732536316 3.25801372528076172
-0.212254494428634644 -0.805315375328063965 2.06147003173828125
0.267716199159622192 -1.27187037467956543 3.81158971786499023
0.582951009273529053 -0.162210240960121155 2.18897676467895508
0.0520100817084312439 -0.259504526853561401 3.44258379936218262
1.41936624050140381 -0.339682668447494507 3.54558777809143066
0.239268958568572998 0.0933591723442077637 2.25307822227478027
-0.772596061229705811 -1.05720162391662598 3.28820466995239258
-0.207256808876991272 -0.0985018312931060791 3.15053558349609375
0.394460350275039673 0.14062170684337616 2.12521481513977051
0.0674379020929336548 -1.393363356590271 3.75764703750610352
-0.394061148166656494 -2.15803790092468262 3.41813015937805176
-0.767371237277984619 -0.86758732795715332 3.60524415969848633
-0.234402984380722046 0.113932132720947266 2.43260478973388672
1.07339274883270264 -0.469110667705535889 2.60157394409179688
-0.0500193238258361816 -1.10394906997680664 2.66416835784912109
0.107067108154296875 -0.462773025035858154 3.53562355041503906
1.30940306186676025 -0.202341735363006592 2.28951549530029297
-0.584320306777954102 -0.253794163465499878 2.8332977294921875
0.920469105243682861 -1.01428663730621338 3.77068090438842773
-0.765844166278839111 -0.523135006427764893 3.10824346542358398
-0.0798731297254562378 0.349051058292388916 2.25872921943664551
-0.449069440364837646 -0.828079342842102051 3.81216287612915039
0.654563069343566895 0.0894109830260276794 2.93527579307556152
-0.688456892967224121 -1.28651678562164307 3.64202547073364258
0.968338727951049805 -1.36079204082489014 3.7210991382598877
-0.659004032611846924 -0.642445564270019531 3.69002008438110352
-0.224340319633483887 -0.898193061351776123 2.17254471778869629
-0.890307605266571045 -2.43484973907470703 3.06377601623535156
1.92838752269744873 -1.58760344982147217 3.55883407592773438
-0.452512860298156738 0.00678644143044948578 2.56074380874633789
0.636206150054931641 -0.296818673610687256 2.29536223411560059
0.700917422771453857 -1.48157751560211182 3.67472004890441895
0.18632526695728302 0.139600425958633423 2.12532806396484375
-1.64596021175384521 0.0328735336661338806 2.35236287117004395
-0.515550374984741211 -0.0213483795523643494 2.53266525268554688
0.532970786094665527 -1.32411670684814453 3.74508571624755859
0.721970200538635254 -1.34983062744140625 3.78330779075622559
-0.00100740790367126465 0.141682863235473633 2.36383271217346191
-0.536243796348571777 -1.33523464202880859 3.23437118530273438
-1.19852221012115479 -0.325572103261947632 2.15832281112670898
-0.276846140623092651 -0.0181037038564682007 2.47013735771179199
0.483858406543731689 -0.478409618139266968 2.31430339813232422
-0.617133557796478271 -1.31698071956634521 3.54901242256164551
-0.482945501804351807 0.000939245335757732391 2.5365300178527832
0.211179882287979126 0.149910956621170044 2.17562675476074219
-0.818572282791137695 -0.796413123607635498 3.76694250106811523
1.33240878582000732 -0.106393598020076752 3.27387547492980957
-0.224720388650894165 -0.00093537941575050354 3.03232455253601074
0.293480604887008667 -0.99353945255279541 3.76776623725891113
-1.2446669340133667 0.227001279592514038 2.27876710891723633
1.31018805503845215 -1.09838783740997314 3.68540859222412109
1.41407716274261475 -0.0419631823897361755 3.26539325714111328
1.31028008460998535 -0.11243756115436554 3.31288957595825195
0.899703323841094971 -0.136208891868591309 2.09937953948974609
0.83070063591003418 -1.34135246276855469 2.44074392318725586
1.12192380428314209 -0.849586963653564453 3.74395370483398438
-0.566616356372833252 -1.06585264205932617 3.58576226234436035
1.36232733726501465 -0.342543959617614746 3.48216533660888672
0.211369872093200684 0.141420066356658936 2.24122309684753418
1.38235569000244141 -1.39201128482818604 3.58183407783508301
-0.19076189398765564 -1.33193039894104004 3.8292694091796875
0.427541047334671021 -1.10850870609283447 3.66270208358764648
-0.835454165935516357 -0.892982244491577148 3.25572013854980469
0.083052903413772583 -0.768146336078643799 3.86718177795410156
-0.728473126888275146 0.0289895422756671906 2.56416916847229004
0.175597831606864929 0.135232657194137573 2.27829217910766602
0.197235122323036194 -1.10621941089630127 3.91124415397644043
-0.724130570888519287 -1.09641993045806885 3.48999404907226562
-0.697491824626922607 -0.668844103813171387 3.81797266006469727
1.4027334451675415 -0.157178670167922974 3.25884461402893066
1.79991090297698975 -0.976987242698669434 3.64173126220703125
1.27290630340576172 -1.33800411224365234 3.49098539352416992
1.35956788063049316 0.22171705961227417 3.19996142387390137
-0.429907232522964478 -0.0439362823963165283 2.60568428039550781
1.00380253791809082 -0.0754572153091430664 2.25687193870544434
-0.158273130655288696 -0.0225275475531816483 2.99561524391174316
1.36814510822296143 -0.258247166872024536 3.36064863204956055
1.37589180469512939 -0.0925556793808937073 3.26248884201049805
1.08218324184417725 -1.23956465721130371 3.60482549667358398
1.32400655746459961 -0.211333811283111572 3.35035562515258789
1.51495599746704102 -1.31741809844970703 3.64649295806884766
0.245154008269309998 0.124100290238857269 2.21498751640319824
0.290656566619873047 0.159815937280654907 2.45444774627685547
0.52926170825958252 -0.701997101306915283 3.61350703239440918
1.37728023529052734 -0.25374138355255127 3.37191486358642578
0.397426486015319824 -0.792240023612976074 3.76763629913330078
1.03095090389251709 0.136565804481506348 3.26417183876037598
-0.046750679612159729 -0.654193282127380371 2.71636748313903809
1.3076636791229248 0.0824043601751327515 2.96372318267822266
-1.813315749168396 -0.30845266580581665 2.16337037086486816
-0.202287152409553528 0.134838283061981201 2.42566561698913574
1.37863659858703613 -0.2308836430311203 3.39789271354675293
1.73987853527069092 -1.43073523044586182 3.67967748641967773
-0.513511359691619873 0.0261673703789710999 2.55089426040649414
0.166148766875267029 0.137440264225006104 2.25313043594360352
0.145924121141433716 -0.981710851192474365 3.86332893371582031
-0.217338651418685913 0.114726096391677856 2.30261325836181641
-0.279582828283309937 0.0182771738618612289 2.47781848907470703
-0.444210082292556763 -0.00228536315262317657 2.55926990509033203
-0.529466748237609863 -0.881355047225952148 3.71564221382141113
-0.42817455530166626 -0.901015698909759521 3.74598956108093262
0.0624023564159870148 0.0710613876581192017 2.41748547554016113
0.752666354179382324 0.042151913046836853 3.04893612861633301
-0.421229362487792969 -0.0646189004182815552 2.67898058891296387
-0.130052536725997925 -0.665121674537658691 3.73479008674621582
-0.26664423942565918 -1.47751307487487793 2.30574250221252441
1.50537109375 -1.38012385368347168 3.61527729034423828
1.58468067646026611 -1.10882139205932617 3.65480780601501465
-0.0144272111356258392 -0.82842785120010376 3.80202579498291016
-0.722913622856140137 -0.826490283012390137 3.77286744117736816
0.582732558250427246 -0.812915503978729248 2.5152900218963623
-0.22755095362663269 0.028731686994433403 2.42909932136535645
0.191014379262924194 0.136135309934616089 2.1606290340423584
