ply
format ascii 1.0
element vertex 256
comment vertices
property float x
property float y
property float z
end_header
-0.358359932899475098 1.94345307350158691 -1.19098842144012451
-0.177090153098106384 3.58255195617675781 -0.942927181720733643
1.05111098289489746 3.6361851692199707 -1.13336896896362305
-2.68926572799682617 0.260913848876953125 -1.04989957809448242
1.45776212215423584 3.95588445663452148 -0.0366745293140411377
0.0588815435767173767 2.75829458236694336 -1.17100822925567627
-1.11163961887359619 3.62807822227478027 -1.12575018405914307
0.66655886173248291 2.16279840469360352 -1.11899328231811523
0.620200514793395996 4.78058815002441406 -0.505485475063323975
-1.94228994846343994 2.68336391448974609 -1.22076380252838135
-1.22060048580169678 3.14271259307861328 -0.605017304420471191
0.140212774276733398 3.05491495132446289 -1.16598069667816162
-1.07694041728973389 2.46829462051391602 -1.11824119091033936
0.120179355144500732 2.60757303237915039 -1.16138231754302979
0.56548619270324707 3.81218504905700684 -1.11655962467193604
0.539309144020080566 3.13001561164855957 -1.17196798324584961
-1.2268909215927124 3.19423866271972656 -1.21900272369384766
0.205965474247932434 1.3853607177734375 -1.1071399450302124
0.429310619831085205 4.31637096405029297 -0.6129111647605896
-1.11212527751922607 3.76952552795410156 -0.673313140869140625
-0.290608823299407959 3.90715503692626953 -1.07590258121490479
0.749775171279907227 3.54417824745178223 -1.15156877040863037
1.74777722358703613 2.62022542953491211 -1.18858206272125244
1.54959571361541748 2.8483273983001709 -1.10422921180725098
0.772561073303222656 3.53972721099853516 -1.13364887237548828
0.172250047326087952 2.68272972106933594 -1.159584641456604
1.09564638137817383 2.61538791656494141 -1.089272141456604
-1.8940051794052124 2.45876789093017578 -1.08912181854248047
0.816557824611663818 3.86114716529846191 -1.08827996253967285
0.396727025508880615 4.91857433319091797 -0.2307109534740448
-0.599804043769836426 1.83477461338043213 -1.16575372219085693
2.93444633483886719 3.1678006649017334 -1.17742574214935303
-1.67894959449768066 3.24126124382019043 -1.18565034866333008
-1.5200200080871582 1.49922168254852295 -1.0358893871307373
-1.04186201095581055 4.3456120491027832 -0.397173821926116943
0.0408620871603488922 2.76409626007080078 -1.16662502288818359
0.659018039703369141 3.45505833625793457 -1.16246962547302246
-0.113891720771789551 2.30691647529602051 -1.17550039291381836
-0.0296827331185340881 2.58883190155029297 -1.13795506954193115
0.18852725625038147 1.38586390018463135 -1.13202166557312012
1.10469841957092285 4.09089756011962891 -0.864899516105651855
0.65597301721572876 2.15821599960327148 -1.13227522373199463
-0.757194280624389648 3.36450624465942383 -1.00459015369415283
-0.500057339668273926 1.98714303970336914 -1.15750932693481445
1.11373305320739746 2.61257076263427734 -1.10357856750488281
0.789083659648895264 4.75549840927124023 -0.388412982225418091
-0.172661378979682922 3.29999089241027832 -1.13470327854156494
-1.57692384719848633 3.67944669723510742 -1.1365426778793335
1.99663162231445312 3.24256753921508789 -0.671471953392028809
0.538355708122253418 4.56447076797485352 -0.580858230590820312
0.750541925430297852 3.54470443725585938 -1.11088037490844727
-0.652617216110229492 4.55084896087646484 -0.396820127964019775
-0.189034879207611084 2.50778412818908691 -1.13717162609100342
-1.10195589065551758 2.47801923751831055 -1.07036435604095459
0.183807581663131714 1.38787567615509033 -1.13972997665405273
-1.69635021686553955 2.97295308113098145 -0.999071955680847168
0.658499836921691895 2.16076087951660156 -1.1350780725479126
0.78654026985168457 3.58255624771118164 -1.12627255916595459
0.767922878265380859 4.57886362075805664 -0.673468589782714844
1.46693015098571777 3.90288186073303223 -0.126616612076759338
0.756935477256774902 3.55603909492492676 -1.11627554893493652
-0.583821535110473633 2.43931365013122559 -1.08781552314758301
0.660120308399200439 2.15870952606201172 -1.14016199111938477
0.504253268241882324 4.87670087814331055 -0.00136107206344604492
-1.01632261276245117 3.93674135208129883 -0.686912238597869873
0.735734283924102783 3.5658719539642334 -1.12412691116333008
0.0316630713641643524 2.84683370590209961 -1.17308735847473145
-0.36993032693862915 4.73896551132202148 -0.218561753630638123
1.10233652591705322 2.62130594253540039 -1.10462629795074463
-0.617355585098266602 3.54655671119689941 -1.15229713916778564
1.34204566478729248 4.34101724624633789 -1.00935494899749756
-1.08854198455810547 2.47516274452209473 -1.06844115257263184
0.652087152004241943 2.16066265106201172 -1.14986133575439453
-0.112426087260246277 2.21555685997009277 -1.22351932525634766
-1.42429924011230469 2.16439008712768555 -1.25031304359436035
1.80463790893554688 3.1688835620880127 -0.788445711135864258
1.08312499523162842 2.63644647598266602 -1.05697643756866455
0.370117366313934326 2.78786969184875488 -1.14101254940032959
0.055025935173034668 2.69222640991210938 -1.16521406173706055
0.911021888256072998 3.69235110282897949 -1.13296973705291748
0.217899113893508911 1.5699688196182251 -1.11995172500610352
0.662919759750366211 4.07334136962890625 -0.949308454990386963
-0.283686280250549316 2.08078145980834961 -1.20738315582275391
0.877309083938598633 4.76434803009033203 -0.515278398990631104
-1.38314008712768555 3.01787471771240234 -1.21094810962677002
-2.42293596267700195 1.23240995407104492 -0.95904463529586792
0.22634868323802948 3.30468034744262695 -1.12569940090179443
-1.09240996837615967 2.46166729927062988 -1.12626755237579346
-2.39532184600830078 2.81345772743225098 -1.04503583908081055
0.473235279321670532 3.27704024314880371 -1.10693049430847168
0.494197219610214233 2.77071619033813477 -1.1169898509979248
0.73739016056060791 3.53785848617553711 -1.12773752212524414
1.81061935424804688 3.28030252456665039 -0.793692886829376221
-1.02042138576507568 2.69896984100341797 -0.635123968124389648
-0.363913416862487793 2.34765911102294922 -1.15450155735015869
0.74455493688583374 4.18679380416870117 -0.831777036190032959
-0.366671860218048096 2.10516071319580078 -1.16312909126281738
0.838258624076843262 2.68717408180236816 -1.17379188537597656
-1.3951038122177124 2.98041343688964844 -1.0339738130569458
-0.294721126556396484 3.36299848556518555 -1.25954806804656982
0.0473627038300037384 2.52781391143798828 -1.14538276195526123
-0.294086337089538574 3.91187047958374023 -1.08448600769042969
-0.154494687914848328 2.37030124664306641 -1.16116762161254883
-1.02582728862762451 2.4335474967956543 -1.24426651000976562
-1.10998117923736572 2.47491264343261719 -1.12153160572052002
1.44524908065795898 3.29404258728027344 -1.11445415019989014
-0.535178542137145996 2.65857410430908203 -1.12979912757873535
-2.32556605339050293 0.0367047786712646484 -1.05282855033874512
0.0192170124500989914 2.52335190773010254 -1.18127632141113281
1.07569730281829834 2.71015691757202148 -1.09028661251068115
0.0365560874342918396 2.70339012145996094 -1.1665877103805542
-0.528163373470306396 1.99429428577423096 -1.21429336071014404
-1.251578688621521 3.27182650566101074 -1.14017915725708008
-1.40412425994873047 3.12314224243164062 -0.681557238101959229
1.62272775173187256 3.44758701324462891 -1.15970253944396973
0.217066004872322083 3.36716222763061523 -1.15998542308807373
1.10502099990844727 2.60922074317932129 -1.08142304420471191
0.442685306072235107 4.77355861663818359 -0.358370989561080933
-0.366779536008834839 2.8261265754699707 -1.00510656833648682
0.0485223829746246338 2.8780360221862793 -1.17462337017059326
0.666534185409545898 2.15422272682189941 -1.12121927738189697
-1.66362738609313965 4.47591400146484375 -0.984280049800872803
-1.54945850372314453 3.38251924514770508 -1.11427319049835205
-0.778606593608856201 3.08523464202880859 -0.957509040832519531
-0.871226727962493896 3.30358505249023438 -0.647829890251159668
1.14625513553619385 3.84863090515136719 -0.790032565593719482
0.528200387954711914 4.09560394287109375 -0.562524020671844482
-0.0280213207006454468 2.59438729286193848 -1.16595661640167236
1.83326029777526855 2.83929014205932617 -0.721621990203857422
-0.114268019795417786 4.04947566986083984 -1.06164693832397461
-0.00629653409123420715 2.87167143821716309 -1.16807961463928223
0.632713198661804199 4.757171630859375 -0.763153970241546631
1.13027071952819824 2.60414457321166992 -1.08626902103424072
0.21119236946105957 1.35628330707550049 -1.11169064044952393
-1.59267318248748779 3.73333191871643066 -1.12894690036773682
0.651561558246612549 2.15836334228515625 -1.13803744316101074
-0.439994663000106812 3.36405205726623535 -1.08176815509796143
-0.295671731233596802 3.90791463851928711 -1.09927272796630859
1.46613001823425293 1.77389919757843018 -0.769376516342163086
0.914665699005126953 4.08660602569580078 -1.09424400329589844
1.01973366737365723 2.13545823097229004 -1.12285113334655762
-1.36107182502746582 3.2431032657623291 -0.829881370067596436
-2.62802958488464355 1.91308963298797607 -1.05469179153442383
-0.506878316402435303 1.91960608959197998 -1.21162843704223633
0.204579949378967285 1.37660789489746094 -1.13070917129516602
0.679464638233184814 2.20140981674194336 -1.13296914100646973
0.652055323123931885 2.16091299057006836 -1.142486572265625
0.66101527214050293 2.14690637588500977 -1.11901342868804932
0.774538815021514893 3.53761458396911621 -1.13138329982757568
0.127677753567695618 2.6181938648223877 -1.15390360355377197
0.243072926998138428 3.5817408561706543 -1.13480639457702637
0.980544209480285645 2.06239891052246094 -1.18606853485107422
0.0648690760135650635 2.07890748977661133 -1.12505781650543213
0.210785612463951111 1.35935211181640625 -1.12529206275939941
1.09527015686035156 2.6563422679901123 -1.05119156837463379
-0.756380558013916016 3.09623813629150391 -1.23836112022399902
1.0373842716217041 3.97342157363891602 -1.03751301765441895
-0.0903723388910293579 2.73662304878234863 -1.14554071426391602
0.849537014961242676 3.87077760696411133 -1.14927828311920166
0.358918040990829468 3.18269920349121094 -1.08200514316558838
0.599840879440307617 4.31881904602050781 -0.655527591705322266
0.660013318061828613 2.20640683174133301 -1.12723040580749512
-0.0179929733276367188 2.71009039878845215 -1.15296649932861328
0.750757813453674316 3.5527031421661377 -1.1241302490234375
0.502770721912384033 3.81768488883972168 -0.850468993186950684
1.36256670951843262 3.84667730331420898 -0.222699195146560669
-1.08988368511199951 2.46450066566467285 -1.11995446681976318
0.0261263176798820496 2.84592413902282715 -1.16154170036315918
-0.848552346229553223 2.53674697875976562 -0.953276932239532471
0.657028079032897949 2.15695714950561523 -1.1150888204574585
-0.417403966188430786 1.95273685455322266 -1.21383988857269287
-1.02413761615753174 3.77273988723754883 -0.982879042625427246
0.112683877348899841 4.94373893737792969 -0.462348192930221558
-2.06561851501464844 4.96676874160766602 -0.781508386135101318
0.775463283061981201 3.53550243377685547 -1.13532674312591553
-0.765127062797546387 3.43031167984008789 -0.797500967979431152
0.294643402099609375 2.5197904109954834 -1.12664031982421875
1.79489362239837646 3.67836093902587891 -0.686256885528564453
1.10756158828735352 2.62934589385986328 -1.09087705612182617
-0.682399392127990723 2.6856381893157959 -1.18069791793823242
0.198699623346328735 1.47424900531768799 -1.11825001239776611
-1.14905977249145508 2.84532785415649414 -1.13957512378692627
1.74705410003662109 2.68003606796264648 -1.2119368314743042
-1.09306001663208008 1.58988571166992188 -1.0339888334274292
-0.705252885818481445 3.84283852577209473 -1.08666706085205078
-1.92486369609832764 3.74947834014892578 -0.949593663215637207
1.1735377311706543 3.11142230033874512 -1.11921072006225586
2.01715183258056641 2.37534880638122559 -1.09887409210205078
0.0330114103853702545 2.84393787384033203 -1.1559833288192749
0.214558333158493042 1.3633493185043335 -1.12797462940216064
0.762418627738952637 3.55778098106384277 -1.1236884593963623
0.271742641925811768 4.41950035095214844 -1.03258264064788818
2.17653465270996094 3.28075361251831055 -1.14713072776794434
0.285007327795028687 3.47609615325927734 -1.10398149490356445
0.657121002674102783 2.14727449417114258 -1.11927103996276855
0.123753592371940613 2.78404927253723145 -1.16985058784484863
-1.39696896076202393 1.56436514854431152 -1.26435565948486328
0.801513969898223877 4.95129585266113281 -0.552850663661956787
2.06565356254577637 1.70692920684814453 -1.21303844451904297
1.00580894947052002 4.18602657318115234 -0.653977036476135254
1.33115863800048828 4.33442592620849609 -1.01919364929199219
0.482804238796234131 4.43449211120605469 -0.187260523438453674
-0.287894904613494873 2.0471189022064209 -1.19290435314178467
1.12374567985534668 2.62467312812805176 -1.09644496440887451
-2.82660770416259766 0.777164936065673828 -1.04161739349365234
-1.44211483001708984 2.22434854507446289 -0.754111766815185547
-1.08204865455627441 3.23155975341796875 -1.09160935878753662
-1.8673090934753418 2.19973182678222656 -1.19025719165802002
-0.164788812398910522 2.10817909240722656 -1.20244574546813965
0.886257410049438477 4.91402578353881836 -0.580944418907165527
-1.08794021606445312 2.4597327709197998 -1.10211575031280518
1.34697532653808594 3.99921154975891113 0.0980256795883178711
-0.168815046548843384 1.33282232284545898 -1.20453464984893799
0.930287480354309082 3.16167545318603516 -1.03524374961853027
0.0616411790251731873 2.68760395050048828 -1.16280984878540039
-0.300180226564407349 3.48351788520812988 -0.604819059371948242
-1.63448619842529297 3.26730585098266602 -1.12639927864074707
-0.83368229866027832 3.77832198143005371 -0.682169198989868164
-1.2371516227722168 3.35349678993225098 -1.20320165157318115
0.0726712942123413086 3.79427862167358398 -1.20824766159057617
-1.14179861545562744 3.02271389961242676 -1.2118995189666748
-0.923340678215026855 4.14430761337280273 -0.603298664093017578
0.785541355609893799 3.62794852256774902 -1.12398850917816162
0.218069776892662048 1.37896132469177246 -1.10252594947814941
-0.165320172905921936 3.2321929931640625 -1.08518433570861816
1.09833955764770508 2.6195681095123291 -1.07353842258453369
-0.166925340890884399 2.44230484962463379 -1.16330587863922119
-0.866378486156463623 3.38176870346069336 -0.593922138214111328
0.0546307601034641266 2.7503352165222168 -1.17070913314819336
-0.298279464244842529 3.90201711654663086 -1.1097416877746582
0.904653191566467285 2.86553835868835449 -1.0799945592880249
0.927500307559967041 4.7392573356628418 -0.643731057643890381
2.0769660472869873 3.69283318519592285 -1.13181006908416748
0.117944836616516113 3.15199542045593262 -1.11748719215393066
-0.818328261375427246 3.01247215270996094 -1.27020108699798584
0.154413878917694092 2.65524053573608398 -1.14644181728363037
-0.551678895950317383 2.45818901062011719 -1.15274834632873535
-0.194376766681671143 2.27304768562316895 -1.17624306678771973
-1.11536681652069092 2.48120689392089844 -1.11751878261566162
1.09381365776062012 2.64415764808654785 -1.07586359977722168
0.632791340351104736 4.40911006927490234 -0.548846721649169922
-0.313797116279602051 2.11169719696044922 -1.17725551128387451
1.5603950023651123 3.57700586318969727 -0.724807918071746826
-1.194588303565979 3.07410788536071777 -1.20695173740386963
-0.202431961894035339 2.36574125289916992 -1.13579583168029785
0.0325578302145004272 2.60934686660766602 -1.16059505939483643
-0.0462715141475200653 2.53918313980102539 -1.18073022365570068
0.74938201904296875 3.55810928344726562 -1.12867200374603271
1.77125644683837891 2.9088127613067627 -0.735163509845733643
0.697722911834716797 3.90633845329284668 -0.925906717777252197
-0.00824360549449920654 4.51163148880004883 -0.461917072534561157
-0.411282509565353394 2.06272554397583008 -1.20036661624908447
0.651701271533966064 2.17111349105834961 -1.1445777416229248
-1.31244492530822754 3.71372652053833008 -1.0348808765411377
-1.08773660659790039 2.46178388595581055 -1.11098206043243408
0.467295140027999878 3.25949478149414062 -1.10723733901977539
