ply
format ascii 1.0
element vertex 114
comment vertices
property float x
property float y
property float z
end_header
-0.358359932899475098 1.94345307350158691 -1.19098842144012451
0.0588815435767173767 2.75829458236694336 -1.17100822925567627
0.66655886173248291 2.16279840469360352 -1.11899328231811523
0.140212774276733398 3.05491495132446289 -1.16598069667816162
-1.07694041728973389 2.46829462051391602 -1.11824119091033936
0.120179355144500732 2.60757303237915039 -1.16138231754302979
0.205965474247932434 1.3853607177734375 -1.1071399450302124
-0.290608823299407959 3.90715503692626953 -1.07590258121490479
0.749775171279907227 3.54417824745178223 -1.15156877040863037
0.772561073303222656 3.53972721099853516 -1.13364887237548828
0.172250047326087952 2.68272972106933594 -1.159584641456604
1.09564638137817383 2.61538791656494141 -1.089272141456604
-0.599804043769836426 1.83477461338043213 -1.16575372219085693
0.0408620871603488922 2.76409626007080078 -1.16662502288818359
-0.113891720771789551 2.30691647529602051 -1.17550039291381836
-0.0296827331185340881 2.58883190155029297 -1.13795506954193115
0.18852725625038147 1.38586390018463135 -1.13202166557312012
0.65597301721572876 2.15821599960327148 -1.13227522373199463
1.11373305320739746 2.61257076263427734 -1.10357856750488281
-0.172661378979682922 3.29999089241027832 -1.13470327854156494
0.750541925430297852 3.54470443725585938 -1.11088037490844727
-0.189034879207611084 2.50778412818908691 -1.13717162609100342
-1.10195589065551758 2.47801923751831055 -1.07036435604095459
0.183807581663131714 1.38787567615509033 -1.13972997665405273
0.658499836921691895 2.16076087951660156 -1.1350780725479126
0.78654026985168457 3.58255624771118164 -1.12627255916595459
0.756935477256774902 3.55603909492492676 -1.11627554893493652
0.660120308399200439 2.15870952606201172 -1.14016199111938477
0.735734283924102783 3.5658719539642334 -1.12412691116333008
0.0316630713641643524 2.84683370590209961 -1.17308735847473145
1.10233652591705322 2.62130594253540039 -1.10462629795074463
-0.617355585098266602 3.54655671119689941 -1.15229713916778564
-1.08854198455810547 2.47516274452209473 -1.06844115257263184
0.652087152004241943 2.16066265106201172 -1.14986133575439453
-0.112426087260246277 2.21555685997009277 -1.22351932525634766
1.08312499523162842 2.63644647598266602 -1.05697643756866455
0.370117366313934326 2.78786969184875488 -1.14101254940032959
0.055025935173034668 2.69222640991210938 -1.16521406173706055
0.217899113893508911 1.5699688196182251 -1.11995172500610352
-0.283686280250549316 2.08078145980834961 -1.20738315582275391
-1.09240996837615967 2.46166729927062988 -1.12626755237579346
0.473235279321670532 3.27704024314880371 -1.10693049430847168
0.494197219610214233 2.77071619033813477 -1.1169898509979248
0.73739016056060791 3.53785848617553711 -1.12773752212524414
-0.363913416862487793 2.34765911102294922 -1.15450155735015869
-0.366671860218048096 2.10516071319580078 -1.16312909126281738
0.0473627038300037384 2.52781391143798828 -1.14538276195526123
-0.294086337089538574 3.91187047958374023 -1.08448600769042969
-0.154494687914848328 2.37030124664306641 -1.16116762161254883
-1.10998117923736572 2.47491264343261719 -1.12153160572052002
0.0192170124500989914 2.52335190773010254 -1.18127632141113281
1.07569730281829834 2.71015691757202148 -1.09028661251068115
0.0365560874342918396 2.70339012145996094 -1.1665877103805542
-0.528163373470306396 1.99429428577423096 -1.21429336071014404
1.10502099990844727 2.60922074317932129 -1.08142304420471191
0.0485223829746246338 2.8780360221862793 -1.17462337017059326
0.666534185409545898 2.15422272682189941 -1.12121927738189697
-0.0280213207006454468 2.59438729286193848 -1.16595661640167236
-0.00629653409123420715 2.87167143821716309 -1.16807961463928223
1.13027071952819824 2.60414457321166992 -1.08626902103424072
0.21119236946105957 1.35628330707550049 -1.11169064044952393
0.651561558246612549 2.15836334228515625 -1.13803744316101074
-0.295671731233596802 3.90791463851928711 -1.09927272796630859
-0.506878316402435303 1.91960608959197998 -1.21162843704223633
0.204579949378967285 1.37660789489746094 -1.13070917129516602
0.679464638233184814 2.20140981674194336 -1.13296914100646973
0.652055323123931885 2.16091299057006836 -1.142486572265625
0.66101527214050293 2.14690637588500977 -1.11901342868804932
0.774538815021514893 3.53761458396911621 -1.13138329982757568
0.127677753567695618 2.6181938648223877 -1.15390360355377197
0.210785612463951111 1.35935211181640625 -1.12529206275939941
1.09527015686035156 2.6563422679901123 -1.05119156837463379
-0.0903723388910293579 2.73662304878234863 -1.14554071426391602
0.358918040990829468 3.18269920349121094 -1.08200514316558838
0.660013318061828613 2.20640683174133301 -1.12723040580749512
-0.0179929733276367188 2.71009039878845215 -1.15296649932861328
0.750757813453674316 3.5527031421661377 -1.1241302490234375
-1.08988368511199951 2.46450066566467285 -1.11995446681976318
0.0261263176798820496 2.84592413902282715 -1.16154170036315918
0.657028079032897949 2.15695714950561523 -1.1150888204574585
-0.417403966188430786 1.95273685455322266 -1.21383988857269287
0.775463283061981201 3.53550243377685547 -1.13532674312591553
0.294643402099609375 2.5197904109954834 -1.12664031982421875
1.10756158828735352 2.62934589385986328 -1.09087705612182617
0.198699623346328735 1.47424900531768799 -1.11825001239776611
0.0330114103853702545 2.84393787384033203 -1.1559833288192749
0.214558333158493042 1.3633493185043335 -1.12797462940216064
0.762418627738952637 3.55778098106384277 -1.1236884593963623
0.657121002674102783 2.14727449417114258 -1.11927103996276855
0.123753592371940613 2.78404927253723145 -1.16985058784484863
-0.287894904613494873 2.0471189022064209 -1.19290435314178467
1.12374567985534668 2.62467312812805176 -1.09644496440887451
-0.164788812398910522 2.10817909240722656 -1.20244574546813965
-1.08794021606445312 2.4597327709197998 -1.10211575031280518
0.0616411790251731873 2.68760395050048828 -1.16280984878540039
0.218069776892662048 1.37896132469177246 -1.10252594947814941
1.09833955764770508 2.6195681095123291 -1.07353842258453369
-0.166925340890884399 2.44230484962463379 -1.16330587863922119
0.0546307601034641266 2.7503352165222168 -1.17070913314819336
-0.298279464244842529 3.90201711654663086 -1.1097416877746582
0.904653191566467285 2.86553835868835449 -1.0799945592880249
0.154413878917694092 2.65524053573608398 -1.14644181728363037
-0.194376766681671143 2.27304768562316895 -1.17624306678771973
-1.11536681652069092 2.48120689392089844 -1.11751878261566162
1.09381365776062012 2.64415764808654785 -1.07586359977722168
-0.313797116279602051 2.11169719696044922 -1.17725551128387451
-0.202431961894035339 2.36574125289916992 -1.13579583168029785
0.0325578302145004272 2.60934686660766602 -1.16059505939483643
-0.0462715141475200653 2.53918313980102539 -1.18073022365570068
0.74938201904296875 3.55810928344726562 -1.12867200374603271
-0.411282509565353394 2.06272554397583008 -1.20036661624908447
0.651701271533966064 2.17111349105834961 -1.1445777416229248
-1.08773660659790039 2.46178388595581055 -1.11098206043243408
0.467295140027999878 3.25949478149414062 -1.10723733901977539
