ply
format ascii 1.0
element vertex 256
comment vertices
property float x
property float y
property float z
end_header
-0.00813056714832782745 -0.0668914914131164551 0.638855099678039551
0.385780751705169678 -0.506202816963195801 0.779325723648071289
-0.716760933399200439 -0.322671055793762207 0.672089695930480957
-0.0221328474581241608 -0.281420022249221802 0.750822067260742188
0.100811585783958435 -0.260643422603607178 0.729474008083343506
0.439398050308227539 -0.16923077404499054 0.726296722888946533
-0.0181634481996297836 -0.21458137035369873 0.70362246036529541
-0.0375501960515975952 -0.160165220499038696 0.64879840612411499
-0.072952568531036377 -0.135515749454498291 0.718591928482055664
0.259968012571334839 -0.309927910566329956 0.737291634082794189
0.120067782700061798 -0.0869645923376083374 0.679950356483459473
-0.0339158326387405396 -0.177809089422225952 0.713402211666107178
0.231337457895278931 -0.384897828102111816 0.701053440570831299
-0.0263126641511917114 -0.101968437433242798 0.699894309043884277
-0.0662507936358451843 -0.159179210662841797 0.670583069324493408
0.0528257712721824646 -0.164583653211593628 0.711407959461212158
-0.0414361581206321716 -0.118726186454296112 0.730269372463226318
0.0326908677816390991 -0.241449922323226929 0.754093468189239502
-0.220207840204238892 -0.279121279716491699 0.661902785301208496
0.019507821649312973 -0.10445113480091095 0.688686966896057129
-0.0449695438146591187 -0.286954283714294434 0.733705282211303711
0.321218788623809814 -0.280809998512268066 0.768776237964630127
0.112756535410881042 -0.30636945366859436 0.720598757266998291
0.0314012281596660614 -0.252018213272094727 0.688735663890838623
-0.0297359079122543335 -0.108873270452022552 0.666940927505493164
0.132939159870147705 -0.128627568483352661 0.70702826976776123
-0.717551827430725098 -0.334936559200286865 0.658128798007965088
-0.0193217732012271881 -0.0888775885105133057 0.673263728618621826
0.0208200756460428238 -0.231529101729393005 0.744448482990264893
-0.00821917131543159485 -0.0808665677905082703 0.699977517127990723
0.151752308011054993 -0.372828453779220581 0.741859495639801025
-0.0366340428590774536 -0.264172941446304321 0.734917998313903809
-0.0702974498271942139 -0.183625951409339905 0.703872025012969971
0.485014200210571289 -0.464419126510620117 0.779130876064300537
0.051698293536901474 -0.249878868460655212 0.697199642658233643
-0.0579291954636573792 -0.106558158993721008 0.687906503677368164
0.140053868293762207 -0.316270112991333008 0.701228678226470947
0.00483831390738487244 -0.140746146440505981 0.671740233898162842
-0.213696762919425964 -0.333491265773773193 0.674147963523864746
0.120747148990631104 -0.30255243182182312 0.71411287784576416
0.1639118492603302 -0.359939157962799072 0.758663356304168701
-0.0541529655456542969 -0.163595736026763916 0.654136061668395996
0.0408734902739524841 -0.189438939094543457 0.729524612426757812
0.0593103989958763123 -0.193664819002151489 0.715854346752166748
0.0415866822004318237 -0.227213174104690552 0.702416002750396729
0.0565718300640583038 -0.289869129657745361 0.710996508598327637
-0.0486619062721729279 -0.199544936418533325 0.731733024120330811
-0.015409739688038826 -0.0886780694127082825 0.677998125553131104
-0.00289347395300865173 -0.0989294946193695068 0.65979158878326416
-0.0488481037318706512 -0.237495645880699158 0.739894568920135498
0.0746273696422576904 -0.36452522873878479 0.723176300525665283
-0.0578543096780776978 -0.126722157001495361 0.711000144481658936
0.0297595895826816559 -0.105430729687213898 0.684195101261138916
0.130831301212310791 -0.309236407279968262 0.710402548313140869
0.0019534677267074585 -0.296930372714996338 0.719834864139556885
0.239349633455276489 -0.148729756474494934 0.726979374885559082
-0.0229110214859247208 -0.0319099500775337219 0.584983706474304199
-0.0800220966339111328 -0.302205264568328857 0.702091693878173828
0.017632434144616127 -0.171429336071014404 0.717445909976959229
0.149822741746902466 -0.340092271566390991 0.68793255090713501
-0.00475684180855751038 -0.124049358069896698 0.686600804328918457
-0.0423498973250389099 -0.260737091302871704 0.74306410551071167
0.417418122291564941 -0.57741624116897583 0.776790440082550049
0.22277367115020752 -0.261187493801116943 0.73641735315322876
0.0136414431035518646 -0.123074211180210114 0.703238904476165771
-0.0483635887503623962 -0.100640475749969482 0.677440226078033447
0.0140034854412078857 -0.141287222504615784 0.742666959762573242
0.0403008982539176941 -0.230221927165985107 0.756461918354034424
-0.0507563389837741852 -0.225941449403762817 0.722416818141937256
0.0171242821961641312 -0.212433129549026489 0.751882553100585938
0.329953700304031372 -0.280504167079925537 0.758287668228149414
0.26406899094581604 -0.195927530527114868 0.714762568473815918
0.175152704119682312 -0.37695080041885376 0.685069262981414795
0.0304051507264375687 -0.267893195152282715 0.730788469314575195
0.397201389074325562 -0.43765375018119812 0.78901362419128418
-0.0264702178537845612 -0.0408678986132144928 0.636145532131195068
0.0667281225323677063 -0.300099223852157593 0.69944685697555542
-0.0347930565476417542 -0.112685427069664001 0.692153871059417725
0.0284767225384712219 -0.208510160446166992 0.708751142024993896
-0.0321771502494812012 -0.119881853461265564 0.681315302848815918
0.0123438015580177307 -0.290977329015731812 0.736542642116546631
0.0107566602528095245 -0.143710330128669739 0.671768009662628174
-0.0160513278096914291 -0.0696898400783538818 0.6422080397605896
-0.0311403609812259674 -0.284784466028213501 0.729079842567443848
-0.0360091887414455414 -0.228626593947410583 0.733538508415222168
0.197122424840927124 -0.372327715158462524 0.741882920265197754
0.0465997792780399323 -0.244502335786819458 0.695632457733154297
0.0972637683153152466 -0.302818119525909424 0.724892377853393555
0.000881757587194442749 -0.131458118557929993 0.741109848022460938
-0.0107802525162696838 -0.0891663208603858948 0.689497113227844238
-0.0236468520015478134 -0.252559781074523926 0.667340695858001709
-0.0327146053314208984 -0.315288692712783813 0.739328622817993164
-0.0751281082630157471 -0.150269418954849243 0.710806310176849365
0.0123465545475482941 -0.235144764184951782 0.737178206443786621
-0.0772412270307540894 -0.150328218936920166 0.695475578308105469
-0.0845786035060882568 -0.136350929737091064 0.654449820518493652
-0.0328105688095092773 -0.246465697884559631 0.727223753929138184
0.00610070489346981049 -0.269934237003326416 0.737283945083618164
-0.0220356211066246033 -0.0706806331872940063 0.653998851776123047
0.121364757418632507 -0.3205375075340271 0.708885788917541504
0.0308583825826644897 -0.189590364694595337 0.708062827587127686
0.0033091716468334198 -0.104862011969089508 0.65642315149307251
-0.017083045095205307 -0.114136978983879089 0.688259780406951904
-0.439745545387268066 -0.407128244638442993 0.640681624412536621
0.215880274772644043 -0.444672465324401855 0.687187373638153076
-0.406309366226196289 -0.376250892877578735 0.676492393016815186
-0.0688232183456420898 -0.189891383051872253 0.698033809661865234
0.17651858925819397 -0.403031080961227417 0.690566420555114746
0.0413861721754074097 -0.185593277215957642 0.711055934429168701
-0.0541547127068042755 -0.237330079078674316 0.736076414585113525
-0.000192318577319383621 -0.258826315402984619 0.741142809391021729
0.00782531127333641052 -0.125979870557785034 0.681346535682678223
0.0105168893933296204 -0.206556349992752075 0.749468147754669189
-0.113990753889083862 -0.307028025388717651 0.692832648754119873
0.0379817411303520203 -0.266130566596984863 0.724858343601226807
-0.00342700444161891937 -0.0954667925834655762 0.670539796352386475
0.00174741819500923157 -0.150513529777526855 0.723416745662689209
0.138195633888244629 -0.325414776802062988 0.689717471599578857
0.240627780556678772 -0.426495760679244995 0.698652029037475586
0.184640258550643921 -0.424029350280761719 0.739997029304504395
-0.0203713160008192062 -0.082500852644443512 0.689666032791137695
0.0353522449731826782 -0.224922865629196167 0.701233565807342529
-0.0339469797909259796 -0.291053622961044312 0.730874955654144287
-0.00823209993541240692 -0.310555875301361084 0.744214653968811035
0.013998568058013916 -0.0957346037030220032 0.679348349571228027
-0.0489790067076683044 -0.204903498291969299 0.744692802429199219
0.00585853308439254761 -0.143834337592124939 0.654096364974975586
0.4053669273853302 -0.26346290111541748 0.785924911499023438
0.00587330805137753487 -0.158189818263053894 0.726828098297119141
-0.0495813935995101929 -0.238446786999702454 0.737085282802581787
0.520934164524078369 -0.570142567157745361 0.782250821590423584
-0.701877892017364502 -0.443794190883636475 0.555307149887084961
-0.0221620462834835052 -0.110177643597126007 0.688144207000732422
0.218995437026023865 -0.150225922465324402 0.714723467826843262
0.0458971597254276276 -0.225928902626037598 0.698409020900726318
-0.0203209705650806427 -0.11986272782087326 0.682461321353912354
-0.039741121232509613 -0.223811283707618713 0.734308004379272461
-0.063458561897277832 -0.147031351923942566 0.720745861530303955
0.0079058036208152771 -0.328976541757583618 0.734687328338623047
0.0162071622908115387 -0.107337102293968201 0.692477107048034668
-0.0167430900037288666 -0.119041159749031067 0.685865283012390137
0.0284040533006191254 -0.296760708093643188 0.713702082633972168
0.0374245867133140564 -0.143695101141929626 0.667024075984954834
0.143484309315681458 -0.332573980093002319 0.729093611240386963
-0.0717498883605003357 -0.31689608097076416 0.704841554164886475
-0.0644594281911849976 -0.256958901882171631 0.675419151782989502
-0.047422751784324646 -0.240216881036758423 0.737932384014129639
-0.0368434041738510132 -0.226919502019882202 0.739098846912384033
0.0356247015297412872 -0.223598748445510864 0.737817168235778809
0.00169889256358146667 -0.104033470153808594 0.661122322082519531
0.0300833098590373993 -0.230523139238357544 0.757292747497558594
0.0455779172480106354 -0.273441314697265625 0.731308341026306152
0.24427051842212677 -0.165357187390327454 0.737587451934814453
0.0993685200810432434 -0.269389182329177856 0.734345495700836182
-0.0121623668819665909 -0.248643219470977783 0.735380709171295166
0.114095181226730347 -0.0992260351777076721 0.685782313346862793
0.0662009865045547485 -0.236931726336479187 0.700681507587432861
0.0477417111396789551 -0.166703760623931885 0.721023857593536377
0.00104070501402020454 -0.140939503908157349 0.660407185554504395
0.144066601991653442 -0.298228919506072998 0.731292903423309326
0.219122052192687988 -0.275752276182174683 0.758559763431549072
-0.0393135771155357361 -0.220811650156974792 0.729887187480926514
0.00520182400941848755 -0.259586989879608154 0.740602493286132812
0.218806624412536621 -0.162901580333709717 0.716753959655761719
0.160828039050102234 -0.368740171194076538 0.69959789514541626
0.131983622908592224 -0.147989183664321899 0.710092604160308838
-0.0492493137717247009 -0.305336624383926392 0.71553725004196167
0.287574172019958496 -0.256641507148742676 0.7595711350440979
-0.0478962399065494537 -0.310155868530273438 0.703114807605743408
0.0685998648405075073 -0.361245244741439819 0.733150303363800049
0.00295823626220226288 -0.161256134510040283 0.715093255043029785
0.559559047222137451 -0.541310012340545654 0.783544480800628662
-0.00847921520471572876 -0.0630731210112571716 0.649747312068939209
0.0987683087587356567 -0.303637325763702393 0.723555982112884521
-0.0231080260127782822 -0.206168100237846375 0.705691337585449219
0.0506160706281661987 -0.281785905361175537 0.726919472217559814
0.0423180423676967621 -0.266080349683761597 0.734144926071166992
0.121554188430309296 -0.107783138751983643 0.698217272758483887
0.226748332381248474 -0.274121582508087158 0.758280754089355469
-0.0429053641855716705 -0.173210456967353821 0.711699068546295166
-0.0364950522780418396 -0.0502375476062297821 0.6473236083984375
0.145838215947151184 -0.296532988548278809 0.731871604919433594
0.0478741638362407684 -0.243407502770423889 0.693288862705230713
-0.0284431595355272293 -0.172691643238067627 0.668875277042388916
0.184369072318077087 -0.36992838978767395 0.687960803508758545
0.533740580081939697 -0.297611057758331299 0.800605416297912598
-0.0484419986605644226 -0.289192289113998413 0.736590147018432617
-0.0268136933445930481 -0.114344485104084015 0.705966293811798096
0.105677194893360138 -0.292819470167160034 0.683648943901062012
0.016801781952381134 -0.20980226993560791 0.753815650939941406
-0.000491080805659294128 -0.144055843353271484 0.737457752227783203
-0.053537365049123764 -0.113366506993770599 0.691012382507324219
-0.00867215357720851898 -0.0804534777998924255 0.69930344820022583
0.121184512972831726 -0.330843627452850342 0.709409773349761963
-0.00346649810671806335 -0.0924995839595794678 0.671628594398498535
-0.0152144795283675194 -0.0522703193128108978 0.651847362518310547
0.021459946408867836 -0.204346448183059692 0.756900012493133545
0.00354949384927749634 -0.128394186496734619 0.703170299530029297
0.0179187916219234467 -0.212912559509277344 0.745724499225616455
-0.0643878504633903503 -0.219484955072402954 0.694750607013702393
0.00647734105587005615 -0.142828479409217834 0.741062045097351074
-0.0435726866126060486 -0.217770710587501526 0.732803225517272949
0.000210119877010583878 -0.259267240762710571 0.738630294799804688
0.399629116058349609 -0.545130252838134766 0.774650394916534424
0.00320411473512649536 -0.14281076192855835 0.743441343307495117
0.124669507145881653 -0.289520382881164551 0.733378767967224121
0.0147410556674003601 -0.159006983041763306 0.724651634693145752
-0.570712089538574219 -0.427486777305603027 0.554051399230957031
-0.00369380787014961243 -0.134750202298164368 0.69136810302734375
-0.143663614988327026 -0.319422870874404907 0.687625288963317871
0.0403987206518650055 -0.266168206930160522 0.73329925537109375
0.270632147789001465 -0.465126842260360718 0.685326933860778809
-0.390538483858108521 -0.396439731121063232 0.672754466533660889
-0.0196479149162769318 -0.11023055762052536 0.685182392597198486
0.412267923355102539 -0.391635626554489136 0.760723710060119629
-0.0129449442028999329 -0.116458646953105927 0.669009566307067871
0.005703760776668787 -0.292954027652740479 0.732203423976898193
0.0539987683296203613 -0.28661772608757019 0.719395160675048828
-0.0183166638016700745 -0.0415387712419033051 0.647123575210571289
0.306267380714416504 -0.371877431869506836 0.739110946655273438
0.00752577930688858032 -0.14570792019367218 0.677025496959686279
-0.0166580434888601303 -0.158431768417358398 0.686684668064117432
-0.0242858976125717163 -0.0673883035778999329 0.637633323669433594
-0.0263097062706947327 -0.0774996653199195862 0.641577005386352539
-0.0461302883923053741 -0.221497118473052979 0.737049341201782227
-0.0650247782468795776 -0.18133053183555603 0.705560624599456787
0.415515720844268799 -0.500083208084106445 0.769932806491851807
-0.0440827906131744385 -0.2389117032289505 0.651169061660766602
0.0241423435509204865 -0.247460901737213135 0.73699265718460083
0.0354233793914318085 -0.175202399492263794 0.720494866371154785
0.125679701566696167 -0.334972143173217773 0.761790454387664795
-0.044218849390745163 -0.0878237113356590271 0.671101927757263184
0.076017230749130249 -0.202902704477310181 0.705569148063659668
-0.0122636929154396057 -0.10216570645570755 0.700152814388275146
-0.00581641122698783875 -0.267905235290527344 0.722197055816650391
0.0139875579625368118 -0.29445350170135498 0.719143390655517578
-0.00805258192121982574 -0.113384030759334564 0.674312889575958252
-0.0723754018545150757 -0.145336896181106567 0.71439129114151001
-0.0715915709733963013 -0.153500527143478394 0.714403390884399414
-0.0907589942216873169 -0.124779358506202698 0.643361508846282959
0.000984624028205871582 -0.0840688422322273254 0.696473777294158936
-0.058366045355796814 -0.132100373506546021 0.664739489555358887
-0.00103382021188735962 -0.269499987363815308 0.729813039302825928
0.226310312747955322 -0.403101056814193726 0.696310162544250488
-0.0354382507503032684 -0.102246746420860291 0.678954482078552246
0.160308286547660828 -0.386302471160888672 0.69845736026763916
-0.0192537792026996613 -0.0665443912148475647 0.645768225193023682
-0.059090491384267807 -0.126579135656356812 0.710856795310974121
-0.0284392721951007843 -0.325795859098434448 0.741256237030029297
0.0350544005632400513 -0.309619247913360596 0.732634425163269043
-0.0666489377617835999 -0.129979297518730164 0.721378862857818604
0.0211828015744686127 -0.192325621843338013 0.70666956901550293
0.00637887977063655853 -0.275186270475387573 0.737015426158905029
0.0216876640915870667 -0.233561486005783081 0.745602428913116455
-0.0401215329766273499 -0.14790499210357666 0.72785872220993042
0.228545799851417542 -0.377948999404907227 0.695624649524688721
