ply
format ascii 1.0
element vertex 256
comment vertices
property float x
property float y
property float z
end_header
1.05195808410644531 -0.926325559616088867 3.45134854316711426
-0.292038798332214355 0.110813021659851074 1.90044963359832764
-0.416030049324035645 -0.803199887275695801 2.86744403839111328
1.21471977233886719 0.524836421012878418 2.45003008842468262
-0.305273234844207764 -0.064719080924987793 2.58574247360229492
-1.07529640197753906 -0.566768050193786621 2.1626288890838623
1.50891244411468506 0.100973442196846008 3.05583691596984863
-0.138627246022224426 -0.777786970138549805 3.45195293426513672
0.602209329605102539 -0.215349674224853516 2.2145845890045166
0.419738411903381348 0.461555063724517822 2.10734891891479492
0.808345556259155273 0.139798790216445923 3.03731894493103027
0.325499206781387329 -1.42532587051391602 3.4545295238494873
1.6987377405166626 -1.49917685985565186 3.32218766212463379
0.781368017196655273 -0.558077692985534668 3.19139385223388672
-0.606968343257904053 -0.264046907424926758 3.02618694305419922
1.74147188663482666 -0.401807665824890137 3.5037238597869873
-0.338284969329833984 0.235262751579284668 2.5605626106262207
1.55899739265441895 -0.191780969500541687 3.08862113952636719
-0.827654242515563965 -1.52377331256866455 3.30010843276977539
-0.328311443328857422 -0.0565094947814941406 2.337615966796875
0.317866712808609009 0.197066158056259155 2.29897260665893555
-0.789974093437194824 -0.84784543514251709 3.35647821426391602
-0.56233370304107666 0.00596099346876144409 2.58029818534851074
0.180186957120895386 0.190378502011299133 2.50830459594726562
1.49399411678314209 0.18175312876701355 3.0664975643157959
-0.380775809288024902 -1.19886791706085205 3.38120913505554199
0.716904163360595703 -0.096308976411819458 2.4595646858215332
1.00826787948608398 -1.39838767051696777 3.49990010261535645
0.605469584465026855 0.284571826457977295 2.15812802314758301
1.28895080089569092 -0.191941410303115845 3.16628551483154297
0.00650351494550704956 -0.103830248117446899 3.15025162696838379
-0.701792240142822266 -0.852650761604309082 2.61285018920898438
0.56903308629989624 -0.995316386222839355 3.51097512245178223
-0.0496848374605178833 0.214791804552078247 2.26792240142822266
1.24937582015991211 -1.3208233118057251 3.26113414764404297
0.0616275370121002197 -0.249642997980117798 2.89501166343688965
-0.608763933181762695 -0.00367142260074615479 2.58996796607971191
0.180219560861587524 0.519190669059753418 2.17058229446411133
0.924774229526519775 0.325127989053726196 2.9467928409576416
0.22355903685092926 0.0876815766096115112 2.2058415412902832
1.52908647060394287 -1.00857305526733398 3.44620108604431152
1.5474245548248291 -0.272927999496459961 3.25317478179931641
0.284311920404434204 -0.488185912370681763 3.49046063423156738
1.20960462093353271 -0.0237012356519699097 2.99022555351257324
-0.220484733581542969 -0.193992704153060913 2.81815028190612793
0.0826059877872467041 -1.11790108680725098 3.54693770408630371
0.0896829664707183838 0.0743399262428283691 2.47205662727355957
-0.102166712284088135 0.384747982025146484 2.45002627372741699
-0.637911319732666016 -0.561634540557861328 3.44913816452026367
-0.513697504997253418 -0.0438780933618545532 2.45614361763000488
1.37802529335021973 -0.493525862693786621 3.50780463218688965
0.712380528450012207 -0.00841622799634933472 2.91020798683166504
0.525001108646392822 -0.479019314050674438 2.50024843215942383
-0.801690578460693359 -0.779822468757629395 3.12664580345153809
-0.306724250316619873 -0.0156413912773132324 2.74744343757629395
-0.667937934398651123 -1.1603165864944458 3.20168542861938477
0.687507688999176025 0.503440737724304199 2.34162449836730957
0.340285420417785645 -1.21426784992218018 3.55399394035339355
0.0166122540831565857 0.278932154178619385 2.03962969779968262
-0.80284583568572998 0.173107057809829712 2.40046787261962891
0.740665018558502197 -1.32939791679382324 3.41216611862182617
-0.549872994422912598 -0.884539484977722168 3.40044450759887695
1.41406440734863281 -0.0727305635809898376 3.09051132202148438
-0.352363109588623047 0.276336103677749634 2.48401069641113281
0.593447387218475342 -0.42775571346282959 2.32857179641723633
0.319284141063690186 -0.354376226663589478 3.13472390174865723
-0.0395363494753837585 -1.55551004409790039 3.49285411834716797
1.43533563613891602 -0.272732734680175781 3.17030763626098633
-0.914900422096252441 -0.0113003551959991455 2.37630581855773926
-0.713300764560699463 -0.667866528034210205 2.36630845069885254
0.182395383715629578 0.0982782989740371704 2.47994852066040039
-0.305851906538009644 -0.366716861724853516 3.29947948455810547
-0.888585150241851807 -0.230510830879211426 2.2489931583404541
-0.775072574615478516 -0.0669879317283630371 2.25207138061523438
0.754477322101593018 -0.732835471630096436 3.45713996887207031
0.381073892116546631 0.334531933069229126 2.19995212554931641
0.836773514747619629 0.0660855472087860107 3.12704944610595703
0.0320028811693191528 -0.876086950302124023 3.52331733703613281
-0.57169032096862793 -1.27296161651611328 3.31803631782531738
-0.558666586875915527 -0.14559917151927948 2.68082094192504883
1.1863706111907959 -1.29202795028686523 3.33524727821350098
1.36027371883392334 -0.170809432864189148 3.07529091835021973
1.75012552738189697 -1.42975378036499023 3.44747281074523926
-0.843814969062805176 -1.06303870677947998 3.21428275108337402
0.372119098901748657 0.210147395730018616 2.45390081405639648
0.0563703477382659912 -0.507070541381835938 3.44590663909912109
1.33426761627197266 0.709102988243103027 2.8132774829864502
-0.810685813426971436 -0.560081779956817627 3.25058937072753906
0.171848148107528687 -0.769016921520233154 3.60555052757263184
0.685965776443481445 -0.282058060169219971 2.24322104454040527
-0.608088314533233643 0.0187571160495281219 2.5326991081237793
0.512433528900146484 0.0400662422180175781 2.70327520370483398
1.07127153873443604 0.195328280329704285 3.20470690727233887
0.150246962904930115 0.132982909679412842 2.3358299732208252
-0.291100740432739258 -0.0272170901298522949 2.87978625297546387
-0.64086836576461792 -0.618063211441040039 2.58320713043212891
0.396942585706710815 0.00559516251087188721 2.30416464805603027
-0.494123250246047974 -0.00766727328300476074 2.52916622161865234
-0.563790738582611084 0.0629664957523345947 2.30748581886291504
1.4759819507598877 -0.215045526623725891 3.17862462997436523
1.74070632457733154 -0.75442969799041748 3.45199728012084961
0.594737887382507324 -1.24115657806396484 3.55519652366638184
0.385947883129119873 -0.353099465370178223 2.62723755836486816
-0.361947417259216309 -0.471518874168395996 2.69235324859619141
1.45785999298095703 0.217793464660644531 3.01818037033081055
0.104428470134735107 0.12524452805519104 2.29330825805664062
1.11415016651153564 -0.627088606357574463 3.3313755989074707
0.897816121578216553 -1.04791474342346191 3.57207274436950684
1.68294823169708252 -1.38848888874053955 3.41873288154602051
1.49130105972290039 -0.147661089897155762 3.07339882850646973
-0.152471795678138733 0.230504363775253296 2.42749357223510742
-0.132931426167488098 -1.27499067783355713 3.40233922004699707
-0.396002441644668579 0.019945189356803894 2.49971246719360352
-0.043541252613067627 0.158359318971633911 2.20885181427001953
-0.624247074127197266 -1.33809578418731689 3.28291225433349609
0.244143888354301453 -1.28568542003631592 3.52512788772583008
-0.535851538181304932 0.0380681306123733521 2.55506277084350586
1.32973265647888184 -1.20392131805419922 3.3756256103515625
0.453413307666778564 0.174754500389099121 2.36485671997070312
-0.244111061096191406 0.241380035877227783 2.43756580352783203
-0.751899421215057373 -1.11157369613647461 3.37769412994384766
0.861460030078887939 0.465857207775115967 2.28167891502380371
-0.714851081371307373 0.0704917460680007935 2.59429144859313965
-0.373970776796340942 -0.783423721790313721 3.46140933036804199
-0.646331071853637695 -1.15312695503234863 3.22515511512756348
1.65866339206695557 -0.739845693111419678 3.42015433311462402
0.626347124576568604 -0.637267053127288818 3.3522026538848877
0.156488850712776184 0.433686435222625732 2.19364833831787109
0.141633793711662292 0.145650118589401245 2.10147762298583984
-0.251290887594223022 -0.0696200579404830933 2.65536093711853027
-0.279411852359771729 -0.935288846492767334 3.53745651245117188
0.302994906902313232 0.213322162628173828 2.19829869270324707
-0.557408928871154785 0.182914018630981445 2.47419333457946777
1.08195626735687256 0.108631044626235962 3.09787607192993164
1.64322876930236816 -1.20770204067230225 3.38126420974731445
-0.0695705413818359375 0.172442108392715454 2.07854485511779785
1.18961906433105469 -1.10822212696075439 3.34506630897521973
-0.11933426558971405 0.0716017782688140869 2.3545222282409668
1.33711302280426025 -0.799179196357727051 3.50152373313903809
0.512085795402526855 -1.64168524742126465 3.27165579795837402
1.25848913192749023 0.197368338704109192 3.16498136520385742
-0.607067763805389404 -0.752806484699249268 3.43822097778320312
1.50658726692199707 -0.21961529552936554 3.10656571388244629
-0.470875650644302368 -0.263672769069671631 2.1590118408203125
0.26564362645149231 -1.17474198341369629 3.51925468444824219
0.551939070224761963 -0.176331639289855957 2.12630510330200195
0.0125339031219482422 -0.156157553195953369 3.20416688919067383
1.47867417335510254 -0.32980114221572876 3.35052609443664551
0.209034830331802368 0.074669666588306427 2.33199691772460938
-0.788900136947631836 -1.02424120903015137 3.1215674877166748
-0.165024399757385254 -0.0955048501491546631 3.09295129776000977
0.535638749599456787 0.318944215774536133 2.09632563591003418
0.0618922188878059387 -1.29416823387145996 3.48220658302307129
-0.314999163150787354 -1.53530168533325195 3.26918196678161621
-0.77100682258605957 -0.780436158180236816 3.33608865737915039
-0.303136944770812988 0.229985147714614868 2.33423686027526855
0.830526232719421387 -0.157976999878883362 2.65360593795776367
-0.433021187782287598 -0.660595595836639404 2.94536495208740234
0.109247572720050812 -0.341999053955078125 3.23772692680358887
1.03741514682769775 0.571811258792877197 2.51500058174133301
-0.611366391181945801 -0.219916388392448425 2.82713437080383301
0.918811321258544922 -0.940819025039672852 3.51201581954956055
-0.746832907199859619 -0.464506596326828003 2.9876708984375
-0.085112839937210083 0.492954134941101074 2.29371857643127441
-0.386566340923309326 -0.67486274242401123 3.44045472145080566
0.702691316604614258 0.201268851757049561 2.86884665489196777
-0.684693574905395508 -1.22141337394714355 3.39113855361938477
1.00677287578582764 -1.24703049659729004 3.51229619979858398
-0.627243936061859131 -0.490465998649597168 3.33988142013549805
-0.551359772682189941 -0.357791423797607422 2.41600418090820312
-0.804877400398254395 -1.43805611133575439 3.13518309593200684
1.86130261421203613 -1.4874502420425415 3.40619206428527832
-0.579849958419799805 0.0172671526670455933 2.51402544975280762
0.598170995712280273 -0.277214527130126953 2.29315495491027832
0.709427595138549805 -1.41817271709442139 3.42708563804626465
0.172839641571044922 0.260928064584732056 2.18391013145446777
-1.05228126049041748 0.00886103510856628418 2.45377731323242188
-0.670622706413269043 -0.0527182817459106445 2.53087711334228516
0.581180572509765625 -1.21489405632019043 3.51489663124084473
0.740392446517944336 -1.21148347854614258 3.54176568984985352
-0.0767864882946014404 0.251908957958221436 2.42456483840942383
-0.486301004886627197 -1.24352526664733887 3.10187196731567383
-0.849743783473968506 -0.31089627742767334 2.14794564247131348
-0.267571449279785156 -0.0685410797595977783 2.49781298637390137
0.509806454181671143 -0.400577843189239502 2.34713411331176758
-0.655208230018615723 -1.26668620109558105 3.33107972145080566
-0.586849093437194824 0.00731474161148071289 2.4848780632019043
0.207581952214241028 0.098834604024887085 2.17855143547058105
-0.842528104782104492 -0.676100611686706543 3.43805456161499023
1.34784865379333496 -0.0793778300285339355 3.08564233779907227
-0.176131516695022583 -0.00610038638114929199 2.96027588844299316
0.31995469331741333 -0.866773426532745361 3.41615200042724609
-0.888305783271789551 0.0909551382064819336 2.33375978469848633
1.35599589347839355 -0.98525536060333252 3.47381043434143066
1.53306937217712402 0.0393637418746948242 3.08532905578613281
1.28340184688568115 -0.0980191156268119812 3.11779451370239258
0.696309864521026611 0.315335780382156372 2.22695612907409668
-0.26869809627532959 -0.517498910427093506 2.84686136245727539
1.15581226348876953 -0.747839868068695068 3.44708442687988281
-0.507381677627563477 -0.967600226402282715 3.36747384071350098
1.31558632850646973 -0.392346173524856567 3.27158069610595703
0.18394121527671814 0.20063425600528717 2.33282732963562012
1.36650335788726807 -1.34471273422241211 3.39927434921264648
-0.213516205549240112 -1.24492895603179932 3.56995391845703125
0.465814560651779175 -1.04748189449310303 3.41638040542602539
-0.840015828609466553 -0.855241656303405762 3.12871265411376953
0.112976312637329102 -0.653872430324554443 3.55249261856079102
-0.870456695556640625 0.04209880530834198 2.55907917022705078
0.109244450926780701 0.140279814600944519 2.3563690185546875
0.190020889043807983 -1.02663397789001465 3.60687708854675293
-0.735228657722473145 -1.02403318881988525 3.26989459991455078
-0.64941781759262085 -0.507665336132049561 3.43386459350585938
1.54350566864013672 -0.173113986849784851 3.11114931106567383
1.75612878799438477 -0.909324347972869873 3.43889379501342773
1.22752535343170166 -1.26856040954589844 3.33804583549499512
1.43308019638061523 0.360630631446838379 3.08728384971618652
-0.37229686975479126 -0.0160530209541320801 2.62930989265441895
0.922649145126342773 0.506937026977539062 2.38789987564086914
-0.0329301431775093079 -0.0403578951954841614 2.91998887062072754
1.50099456310272217 -0.253849565982818604 3.18592381477355957
1.48235189914703369 -0.0269048437476158142 3.11856365203857422
1.09068727493286133 -1.17590928077697754 3.43529224395751953
1.31066739559173584 -0.183061614632606506 3.08985710144042969
1.52752971649169922 -1.15891003608703613 3.40664768218994141
0.455833494663238525 0.186755955219268799 2.25888562202453613
0.244102984666824341 0.186236917972564697 2.56441283226013184
0.569716691970825195 -0.577116489410400391 3.30586099624633789
1.46108734607696533 -0.239370658993721008 3.17192506790161133
0.44280552864074707 -0.687225759029388428 3.45429158210754395
1.00576686859130859 0.256484568119049072 3.11797809600830078
-0.142330348491668701 -0.290275156497955322 2.78684258460998535
1.33594262599945068 0.265775561332702637 2.84896993637084961
-0.982321441173553467 -0.35288625955581665 2.2216038703918457
-0.203923627734184265 0.27165105938911438 2.41737031936645508
1.41915059089660645 -0.194535002112388611 3.18509602546691895
1.72432255744934082 -1.33428716659545898 3.44024801254272461
-0.639310479164123535 0.0861545801162719727 2.4837648868560791
0.084971696138381958 0.248075366020202637 2.33991360664367676
0.127174332737922668 -0.898784756660461426 3.53539109230041504
-0.236489608883857727 0.134634524583816528 2.27274227142333984
-0.285730093717575073 -0.00389979779720306396 2.47577142715454102
-0.555068135261535645 -0.025878608226776123 2.5536959171295166
-0.47800108790397644 -0.758175075054168701 3.38439035415649414
-0.358894407749176025 -0.806235611438751221 3.45177578926086426
0.103326104581356049 0.0428319275379180908 2.49382734298706055
0.73051828145980835 0.062052309513092041 3.00843429565429688
-0.395022928714752197 -0.0622131079435348511 2.7181403636932373
-0.133235186338424683 -0.6157723069190979 3.44072055816650391
-0.702873706817626953 -0.707542538642883301 2.46647882461547852
1.51008141040802002 -1.25286412239074707 3.39399576187133789
1.57555782794952393 -0.963172197341918945 3.41708683967590332
-0.0633058845996856689 -0.745846211910247803 3.49718952178955078
-0.690888106822967529 -0.728229522705078125 3.43993520736694336
0.535828292369842529 -0.639588057994842529 2.58365058898925781
-0.224577844142913818 7.09295272827148438e-05 2.38708400726318359
0.152796819806098938 0.304471671581268311 2.23596405982971191
