ply
format ascii 1.0
element vertex 256
comment vertices
property float x
property float y
property float z
end_header
-0.0146159902215003967 -0.0484504848718643188 0.493414908647537231
0.317493587732315063 -0.42899930477142334 0.780572593212127686
-0.451378971338272095 -0.248420313000679016 0.666320383548736572
-0.0426405072212219238 -0.294240295886993408 0.767382502555847168
0.105297207832336426 -0.239121824502944946 0.72215569019317627
0.37777864933013916 -0.0837893187999725342 0.656536996364593506
-0.031808316707611084 -0.298478186130523682 0.636612772941589355
-0.143879339098930359 -0.213184818625450134 0.545364320278167725
-0.103486113250255585 -0.192836731672286987 0.732038199901580811
0.258569240570068359 -0.294414788484573364 0.725741803646087646
0.119467467069625854 -0.111014381051063538 0.56873708963394165
-0.0378246903419494629 -0.262190550565719604 0.66921466588973999
0.226654037833213806 -0.344799190759658813 0.65955352783203125
0.0191075801849365234 -0.151277855038642883 0.588178098201751709
-0.105906873941421509 -0.236687272787094116 0.588961541652679443
0.0758593082427978516 -0.206704095005989075 0.615088224411010742
-0.0268876999616622925 -0.197777450084686279 0.703804850578308105
0.0426598191261291504 -0.276038020849227905 0.735479831695556641
-0.227955475449562073 -0.276529878377914429 0.685545086860656738
0.0618283301591873169 -0.0323428809642791748 0.591342628002166748
-0.073201499879360199 -0.300727248191833496 0.739839076995849609
0.310269773006439209 -0.237393081188201904 0.758856117725372314
0.0728380084037780762 -0.319592177867889404 0.718687176704406738
-0.00736545026302337646 -0.320465594530105591 0.614264845848083496
-0.0265695452690124512 -0.170448809862136841 0.528729379177093506
0.123765870928764343 -0.178537100553512573 0.615214169025421143
-0.454713582992553711 -0.253911852836608887 0.649749696254730225
-0.0539619177579879761 -0.0657879039645195007 0.536330521106719971
-0.00999779999256134033 -0.279401212930679321 0.725510478019714355
0.0185751691460609436 0.00753104686737060547 0.614859163761138916
0.164277568459510803 -0.353887379169464111 0.730587363243103027
-0.0577411875128746033 -0.287739336490631104 0.730596840381622314
-0.0815533101558685303 -0.247531786561012268 0.697690486907958984
0.411201685667037964 -0.373081743717193604 0.778332948684692383
0.0543440282344818115 -0.309870243072509766 0.617477238178253174
-0.0360261350870132446 -0.145720958709716797 0.588434755802154541
0.139739170670509338 -0.316221147775650024 0.68030625581741333
0.0320801734924316406 -0.136201947927474976 0.539894402027130127
-0.231280654668807983 -0.305603265762329102 0.653874039649963379
0.0546789318323135376 -0.324987739324569702 0.686960577964782715
0.1790027916431427 -0.340419113636016846 0.758779764175415039
-0.117058977484703064 -0.240092754364013672 0.547767698764801025
0.0700912177562713623 -0.242850705981254578 0.692358732223510742
0.0821097493171691895 -0.245320990681648254 0.634706258773803711
0.0356305539608001709 -0.292343229055404663 0.626585781574249268
0.0666235983371734619 -0.309959232807159424 0.63162541389465332
-0.0886140167713165283 -0.213576972484588623 0.740969657897949219
-0.0209834128618240356 -0.0350819975137710571 0.550922214984893799
-0.0229055434465408325 -0.0926227271556854248 0.504010796546936035
-0.0910414531826972961 -0.252171993255615234 0.756089925765991211
0.0345103144645690918 -0.379515886306762695 0.741511344909667969
-0.0194522887468338013 -0.166602924466133118 0.669993937015533447
0.0768678560853004456 -0.0372346937656402588 0.579078018665313721
0.128101438283920288 -0.309460908174514771 0.695994973182678223
-0.0139733999967575073 -0.332896113395690918 0.687399029731750488
0.230469077825546265 -0.136454716324806213 0.614586353302001953
-0.0271614044904708862 0.0262966230511665344 0.527348041534423828
-0.125875100493431091 -0.283856093883514404 0.651604413986206055
0.0162047892808914185 -0.237289145588874817 0.652204811573028564
0.144733041524887085 -0.340551614761352539 0.659718990325927734
0.012323915958404541 -0.201869621872901917 0.552364706993103027
-0.0669077634811401367 -0.275169193744659424 0.757916688919067383
0.333193004131317139 -0.481923818588256836 0.790559470653533936
0.219079658389091492 -0.242023870348930359 0.724486470222473145
0.0451644212007522583 -0.132761359214782715 0.606633126735687256
-0.0423622839152812958 -0.147411823272705078 0.555386364459991455
0.0563503839075565338 -0.181244149804115295 0.737093627452850342
0.0658352524042129517 -0.258895635604858398 0.73002171516418457
-0.0614691674709320068 -0.271217703819274902 0.691286802291870117
-0.0035673677921295166 -0.261419206857681274 0.734133064746856689
0.318507552146911621 -0.233782112598419189 0.737642288208007812
0.278759270906448364 -0.150517180562019348 0.641357183456420898
0.163018703460693359 -0.354045569896697998 0.637627899646759033
-0.000590354204177856445 -0.304198980331420898 0.684796035289764404
0.339742362499237061 -0.368137240409851074 0.772237420082092285
-0.0587598644196987152 -0.00521244853734970093 0.513640820980072021
0.0408827364444732666 -0.330093443393707275 0.610021889209747314
0.0181109160184860229 -0.133208975195884705 0.596170306205749512
0.0118869245052337646 -0.280029833316802979 0.641981363296508789
-0.0140462666749954224 -0.178070023655891418 0.55574345588684082
0.0322523415088653564 -0.322417885065078735 0.737737417221069336
0.037511870265007019 -0.139443248510360718 0.538276255130767822
-0.0178232342004776001 -0.0726019218564033508 0.50484919548034668
-0.0450047403573989868 -0.303093045949935913 0.698617279529571533
-0.0594031102955341339 -0.244992867112159729 0.72893989086151123
0.214118078351020813 -0.34249567985534668 0.73831552267074585
0.0385479629039764404 -0.306748867034912109 0.615516901016235352
0.0862046629190444946 -0.308389514684677124 0.732596516609191895
0.0351040735840797424 -0.143203213810920715 0.723949611186981201
0.0431353077292442322 -0.0229471772909164429 0.615070044994354248
-0.0545559152960777283 -0.322659909725189209 0.571007311344146729
-0.0486160069704055786 -0.320755362510681152 0.738294482231140137
-0.104098215699195862 -0.211835607886314392 0.714505791664123535
-0.0315811783075332642 -0.283595144748687744 0.710794210433959961
-0.0876853018999099731 -0.213361546397209167 0.652555882930755615
-0.179145961999893188 -0.18152935802936554 0.570079803466796875
-0.0568841248750686646 -0.259244978427886963 0.711397767066955566
0.0150339752435684204 -0.30613100528717041 0.737996280193328857
0.010656796395778656 0.0101765096187591553 0.581426382064819336
0.068327292799949646 -0.335470587015151978 0.695868313312530518
0.0273256078362464905 -0.254603356122970581 0.627649784088134766
-0.0281940847635269165 -0.12175866961479187 0.493346273899078369
0.00247244536876678467 -0.188520729541778564 0.55738908052444458
-0.347524583339691162 -0.319959133863449097 0.650259256362915039
0.189435809850692749 -0.399991005659103394 0.672806859016418457
-0.340359508991241455 -0.274123609066009521 0.646825134754180908
-0.0759714841842651367 -0.253293514251708984 0.662466526031494141
0.168921321630477905 -0.376557379961013794 0.658174395561218262
0.055226743221282959 -0.243098840117454529 0.62893754243850708
-0.104543611407279968 -0.249864950776100159 0.738068342208862305
-0.00561444461345672607 -0.303815186023712158 0.760462403297424316
0.0512050390243530273 -0.0961722433567047119 0.565445661544799805
-0.0313283540308475494 -0.261568218469619751 0.739366292953491211
-0.185036167502403259 -0.300531953573226929 0.641874909400939941
0.00275045633316040039 -0.298741191625595093 0.659617424011230469
-0.000598467886447906494 -0.0564689189195632935 0.529319405555725098
-0.0206997841596603394 -0.225974485278129578 0.682621538639068604
0.115141242742538452 -0.32612311840057373 0.652678489685058594
0.233025908470153809 -0.373955130577087402 0.671968817710876465
0.177554011344909668 -0.395454645156860352 0.749774456024169922
0.0236054006963968277 -0.00897826254367828369 0.616300344467163086
0.017392963171005249 -0.294732838869094849 0.628907680511474609
-0.0463931858539581299 -0.309190064668655396 0.708453178405761719
-0.0275230705738067627 -0.336980521678924561 0.765434801578521729
0.0802593380212783813 0.00211982429027557373 0.597761154174804688
-0.0362663157284259796 -0.24753473699092865 0.763360142707824707
-0.025831565260887146 -0.133881509304046631 0.505544304847717285
0.380727857351303101 -0.216265782713890076 0.760967254638671875
0.00223816931247711182 -0.22731935977935791 0.683819830417633057
-0.0945713073015213013 -0.251013070344924927 0.738154888153076172
0.409138917922973633 -0.475329458713531494 0.795509099960327148
-0.466898858547210693 -0.298999607563018799 0.542180001735687256
0.0196480602025985718 -0.159483656287193298 0.562165617942810059
0.200947180390357971 -0.145637914538383484 0.619306266307830811
0.0434664785861968994 -0.288604795932769775 0.613871395587921143
0.0140493959188461304 -0.0834018886089324951 0.573826432228088379
-0.0630315542221069336 -0.239702701568603516 0.735222101211547852
-0.049232088029384613 -0.20454484224319458 0.730835676193237305
0.0116914808750152588 -0.345416665077209473 0.749673962593078613
0.0598859041929244995 -0.042433813214302063 0.597608089447021484
-0.00850014388561248779 -0.20083986222743988 0.554893791675567627
0.0259466320276260376 -0.3272247314453125 0.665634751319885254
0.0685728788375854492 -0.106928087770938873 0.524808287620544434
0.149668574333190918 -0.326061666011810303 0.725012362003326416
-0.109052792191505432 -0.305635988712310791 0.664843082427978516
-0.130636796355247498 -0.276296854019165039 0.627462923526763916
-0.0857473611831665039 -0.250626653432846069 0.737464845180511475
-0.0410914868116378784 -0.234455004334449768 0.74081343412399292
0.0957832932472229004 -0.227310791611671448 0.717682719230651855
-0.0187040455639362335 -0.116174548864364624 0.505137085914611816
0.0404046997427940369 -0.267615914344787598 0.743958592414855957
0.0371988117694854736 -0.305783510208129883 0.680761039257049561
0.286283671855926514 -0.123223811388015747 0.647047579288482666
0.107792772352695465 -0.251955389976501465 0.737173318862915039
-0.0394511893391609192 -0.297301709651947021 0.738265335559844971
0.103181838989257812 -0.133990898728370667 0.578904211521148682
0.0851302444934844971 -0.291321039199829102 0.609686970710754395
0.0704879462718963623 -0.210331931710243225 0.641353845596313477
-0.00559042394161224365 -0.116816148161888123 0.515488624572753906
0.159151867032051086 -0.288338720798492432 0.719713330268859863
0.232114732265472412 -0.254063069820404053 0.735089957714080811
-0.0733998492360115051 -0.239812001585960388 0.722966790199279785
0.022948145866394043 -0.294533014297485352 0.742637872695922852
0.20600464940071106 -0.16871953010559082 0.631769359111785889
0.153523996472358704 -0.349108189344406128 0.669847488403320312
0.13736937940120697 -0.199862509965896606 0.656399011611938477
-0.0649555027484893799 -0.313274145126342773 0.673538088798522949
0.268465250730514526 -0.219839945435523987 0.739543914794921875
-0.0962696373462677002 -0.297008693218231201 0.653886675834655762
0.027336806058883667 -0.380043268203735352 0.764180958271026611
-0.0239851772785186768 -0.237600713968276978 0.663959920406341553
0.441202133893966675 -0.454285621643066406 0.789913535118103027
0.0220281258225440979 -0.00362326949834823608 0.545747756958007812
0.0868178308010101318 -0.308766067028045654 0.7294272780418396
-0.0358912348747253418 -0.291083216667175293 0.642287075519561768
0.0422533899545669556 -0.313253045082092285 0.669001758098602295
0.0384935140609741211 -0.297954082489013672 0.68809276819229126
0.116664260625839233 -0.14323444664478302 0.60551762580871582
0.243682578206062317 -0.254319965839385986 0.734695196151733398
-0.0594977885484695435 -0.260870516300201416 0.682578444480895996
-0.0544031262397766113 -0.0267041400074958801 0.529840350151062012
0.164839804172515869 -0.285647302865982056 0.720523238182067871
0.0394215285778045654 -0.304660975933074951 0.609037697315216064
-0.048519432544708252 -0.2424735426902771 0.553258419036865234
0.180855780839920044 -0.340043127536773682 0.639016091823577881
0.445157140493392944 -0.233757391571998596 0.757268071174621582
-0.0756482779979705811 -0.305627495050430298 0.758189857006072998
0.00819614529609680176 -0.180994361639022827 0.595496058464050293
0.118874460458755493 -0.314745306968688965 0.584426820278167725
-0.00305832922458648682 -0.260335206985473633 0.741101861000061035
-0.0253930948674678802 -0.226688608527183533 0.722398996353149414
-0.0290719121694564819 -0.159259915351867676 0.593181192874908447
0.0154712963849306107 0.00666323304176330566 0.610545217990875244
0.0689705163240432739 -0.346262872219085693 0.700954914093017578
-0.0211900174617767334 -0.0796642526984214783 0.526643753051757812
-0.00674124062061309814 -0.0144438669085502625 0.536116063594818115
0.03371429443359375 -0.241447612643241882 0.734474778175354004
0.0264992415904998779 -0.14576151967048645 0.60945969820022583
-0.00102917850017547607 -0.255647540092468262 0.712915539741516113
-0.0750161111354827881 -0.28610759973526001 0.650671601295471191
0.0475329458713531494 -0.173284485936164856 0.726422309875488281
-0.0766009539365768433 -0.236963838338851929 0.739809274673461914
-0.00282591581344604492 -0.303324341773986816 0.750096321105957031
0.322530984878540039 -0.456727802753448486 0.781377553939819336
0.0376886464655399323 -0.180365502834320068 0.736916303634643555
0.145103305578231812 -0.286076545715332031 0.73067629337310791
0.0287447273731231689 -0.208677053451538086 0.66823124885559082
-0.352475613355636597 -0.293690085411071777 0.533332288265228271
0.0435105860233306885 -0.111065633594989777 0.588821172714233398
-0.207193642854690552 -0.298801660537719727 0.637179672718048096
0.0286953002214431763 -0.299185425043106079 0.686432600021362305
0.247351363301277161 -0.406873583793640137 0.674100518226623535
-0.326653242111206055 -0.296103358268737793 0.654566287994384766
-2.19047069549560547e-06 -0.181939259171485901 0.552696645259857178
0.340687334537506104 -0.308932662010192871 0.766045808792114258
0.00121597945690155029 -0.174110755324363708 0.528558135032653809
0.00344774127006530762 -0.329039275646209717 0.722978472709655762
0.0384499132633209229 -0.317215949296951294 0.651538729667663574
-0.0260849334299564362 -0.00744542479515075684 0.518374085426330566
0.287057995796203613 -0.320502519607543945 0.738629579544067383
0.038209959864616394 -0.103103578090667725 0.550524234771728516
-0.0211846381425857544 -0.239540934562683105 0.568249702453613281
-0.0453269518911838531 -0.0839778929948806763 0.499798774719238281
-0.0454075261950492859 -0.0874727889895439148 0.509293079376220703
-0.108110681176185608 -0.22646939754486084 0.739795565605163574
-0.0649756044149398804 -0.244158878922462463 0.681070864200592041
0.350664198398590088 -0.403714150190353394 0.778473198413848877
-0.148589059710502625 -0.254607409238815308 0.546922385692596436
-0.00558896362781524658 -0.289831936359405518 0.705008625984191895
0.0532627403736114502 -0.231860265135765076 0.654716134071350098
0.145599365234375 -0.335050463676452637 0.771415829658508301
-0.0398698151111602783 -0.117117829620838165 0.546227693557739258
0.104766041040420532 -0.25682300329208374 0.614095330238342285
0.0149431079626083374 -0.0359036624431610107 0.618245303630828857
-0.027517169713973999 -0.305402696132659912 0.687386810779571533
0.00628095865249633789 -0.328356623649597168 0.682184219360351562
0.00779220461845397949 -0.183968424797058105 0.53294074535369873
-0.0947892442345619202 -0.206492975354194641 0.72322380542755127
-0.0888877436518669128 -0.216287791728973389 0.72711646556854248
-0.174201339483261108 -0.162871584296226501 0.569959819316864014
0.0320237688720226288 0.000595293939113616943 0.603526592254638672
-0.10989081859588623 -0.210598692297935486 0.565773546695709229
-0.0131568610668182373 -0.310280263423919678 0.71545112133026123
0.216837465763092041 -0.363113254308700562 0.659246683120727539
-0.00594219565391540527 -0.140880584716796875 0.555401623249053955
0.14297717809677124 -0.36836540699005127 0.671813249588012695
-0.0281317997723817825 -0.050264991819858551 0.510515272617340088
-0.0217833332717418671 -0.167507827281951904 0.67007678747177124
-0.0414690524339675903 -0.328855127096176147 0.740291953086853027
0.0303005874156951904 -0.337750554084777832 0.745730996131896973
-0.0648872852325439453 -0.185679078102111816 0.731068849563598633
-0.00282166153192520142 -0.266072899103164673 0.635177493095397949
0.0117987841367721558 -0.312660574913024902 0.740740776062011719
-0.0106330141425132751 -0.283303141593933105 0.732998311519622803
-0.0441444516181945801 -0.235237941145896912 0.721899509429931641
0.220465511083602905 -0.344210296869277954 0.648095786571502686
