ply
format ascii 1.0
element vertex 256
comment vertices
property float x
property float y
property float z
end_header
-0.336413323879241943 1.96345710754394531 -1.19698727130889893
-0.144774883985519409 4.60524177551269531 -0.575031697750091553
1.18583846092224121 3.62744712829589844 -1.1531825065612793
-2.0026850700378418 2.6934669017791748 -0.576457083225250244
1.19706296920776367 4.22772979736328125 -0.178319990634918213
0.0623922571539878845 2.80219554901123047 -1.17777609825134277
-1.08746278285980225 3.86855816841125488 -1.06511390209197998
0.848987460136413574 2.29993510246276855 -1.15445339679718018
0.548391580581665039 4.70387458801269531 -0.505029678344726562
-1.72639846801757812 2.76574563980102539 -1.22973346710205078
-1.22515010833740234 4.12692737579345703 -0.431683093309402466
0.152027606964111328 3.12167978286743164 -1.12355625629425049
-1.01649618148803711 2.51829695701599121 -1.1311720609664917
0.129584595561027527 2.60144424438476562 -1.2016143798828125
0.65556567907333374 4.02122783660888672 -0.986844956874847412
0.525823295116424561 4.16243267059326172 -0.720615267753601074
-1.22358906269073486 3.42341303825378418 -1.14880084991455078
0.215481847524642944 1.4581073522567749 -1.10467123985290527
0.109362900257110596 4.72043085098266602 -0.638982415199279785
-1.17477917671203613 4.4548640251159668 -0.55891573429107666
-0.361496299505233765 3.91135621070861816 -1.08888351917266846
0.619078993797302246 3.38476443290710449 -1.24535250663757324
0.922168731689453125 4.09531545639038086 -0.63163834810256958
1.36259293556213379 2.98383784294128418 -1.16689729690551758
0.726458311080932617 3.57306289672851562 -1.12633085250854492
0.243295565247535706 2.70966386795043945 -1.20426368713378906
1.09016847610473633 2.61622142791748047 -1.08349382877349854
-1.68774318695068359 2.73669767379760742 -0.971664249897003174
0.783364653587341309 4.06132030487060547 -0.827141404151916504
0.161478161811828613 5.02338266372680664 -0.267054527997970581
-0.49921572208404541 1.95296108722686768 -1.16100478172302246
1.73299646377563477 3.98119664192199707 -0.96350562572479248
-1.35914111137390137 3.52275514602661133 -1.12374269962310791
-1.71034383773803711 3.42977046966552734 -0.58108675479888916
-0.869755864143371582 4.77144145965576172 -0.337406367063522339
0.0632464885711669922 2.82471609115600586 -1.1679004430770874
0.866993606090545654 3.85892701148986816 -0.97925645112991333
-0.116915255784988403 2.29620528221130371 -1.17460298538208008
-0.0635728985071182251 2.6116180419921875 -1.1469881534576416
0.173595517873764038 1.48299646377563477 -1.17398703098297119
0.956917464733123779 4.32243919372558594 -0.648391485214233398
0.665608882904052734 2.19999384880065918 -1.11415648460388184
-0.551384866237640381 4.15065526962280273 -0.82308197021484375
-0.854096174240112305 3.81822109222412109 -0.805450439453125
1.15637445449829102 2.61204981803894043 -1.13364648818969727
0.685769021511077881 4.67466115951538086 -0.242506533861160278
-0.0949973911046981812 3.36764669418334961 -1.11078464984893799
-1.25821340084075928 3.95215296745300293 -1.08424127101898193
0.957573831081390381 4.47636604309082031 -0.398058235645294189
0.549752712249755859 4.58272361755371094 -0.532424569129943848
0.741575777530670166 3.54315638542175293 -0.808864355087280273
-0.61601179838180542 4.78173255920410156 -0.36275753378868103
-0.246764987707138062 2.53778338432312012 -1.13963711261749268
-1.0602651834487915 2.40389299392700195 -1.04131126403808594
0.0733695700764656067 1.39684808254241943 -1.16962301731109619
-1.40457987785339355 3.67151594161987305 -0.777931690216064453
0.674381434917449951 2.19271278381347656 -1.12568998336791992
0.696855723857879639 3.41159272193908691 -1.14603066444396973
0.654333233833312988 4.6089015007019043 -0.537752032279968262
1.19055140018463135 4.17641830444335938 -0.233285248279571533
0.7830810546875 3.51420998573303223 -1.09591162204742432
-0.833408892154693604 4.23231744766235352 -0.609454810619354248
0.683109581470489502 2.25088834762573242 -1.14536762237548828
0.314607918262481689 5.01013994216918945 -0.178350955247879028
-1.09603822231292725 4.57077836990356445 -0.581033945083618164
0.860617518424987793 3.74619007110595703 -0.948215603828430176
-0.0128457844257354736 2.88458752632141113 -1.19667220115661621
-0.51564478874206543 4.95127201080322266 -0.279772013425827026
1.11453878879547119 2.63979482650756836 -1.15049529075622559
-0.487654685974121094 3.58870244026184082 -1.1496117115020752
1.13972210884094238 4.28055477142333984 -0.929384350776672363
-1.06305694580078125 2.54067897796630859 -1.04330301284790039
0.658584415912628174 2.26641321182250977 -1.173317551612854
-0.145392522215843201 2.20439028739929199 -1.24782371520996094
-1.32058238983154297 2.99061131477355957 -1.17627096176147461
0.811022520065307617 4.46278953552246094 -0.466414034366607666
1.06664812564849854 2.69029831886291504 -1.04148900508880615
0.442667990922927856 2.77466511726379395 -1.16525447368621826
0.0685401856899261475 2.70041704177856445 -1.18127286434173584
0.991822540760040283 3.89436197280883789 -0.965549170970916748
0.269170552492141724 1.74642097949981689 -1.14739394187927246
0.620697855949401855 4.39752578735351562 -0.703838229179382324
-0.286375612020492554 2.07930636405944824 -1.22587347030639648
0.760378122329711914 4.65956497192382812 -0.379083991050720215
-1.27908134460449219 3.31200742721557617 -1.19119560718536377
-1.88877558708190918 3.16074347496032715 -0.489189207553863525
0.268240571022033691 4.39202308654785156 -0.685582578182220459
-1.10014200210571289 2.46813774108886719 -1.14037215709686279
-1.61377942562103271 3.54993462562561035 -0.806765317916870117
0.457224637269973755 3.24496078491210938 -1.1534116268157959
0.563667178153991699 2.79178261756896973 -1.13144242763519287
0.894126057624816895 3.64513897895812988 -1.08330154418945312
1.04740226268768311 4.20930385589599609 -0.540346503257751465
-1.44403946399688721 3.70716357231140137 -0.367212206125259399
-0.322898715734481812 2.3687896728515625 -1.12761974334716797
0.669161498546600342 4.41128253936767578 -0.622483968734741211
-0.370325475931167603 2.14757013320922852 -1.14702558517456055
0.578877449035644531 4.13117313385009766 -0.654478311538696289
-1.16007673740386963 4.00260019302368164 -0.79407578706741333
0.279017210006713867 4.0692291259765625 -1.0461801290512085
0.0517057180404663086 2.50860977172851562 -1.17016589641571045
-0.313843101263046265 3.90661764144897461 -1.09796857833862305
-0.194436997175216675 2.38426780700683594 -1.16671013832092285
-1.21108770370483398 3.02979350090026855 -1.15234100818634033
-1.09049093723297119 2.35735416412353516 -1.12253880500793457
1.3778221607208252 3.33587026596069336 -1.14501261711120605
-0.610072851181030273 4.04124212265014648 -0.97240149974822998
-2.02420854568481445 2.56195735931396484 -0.722228527069091797
0.0344370678067207336 2.51392841339111328 -1.22100245952606201
0.901181161403656006 2.9072577953338623 -1.1676175594329834
0.0314524471759796143 2.72063612937927246 -1.18157792091369629
-0.494162917137145996 2.0720057487487793 -1.22759652137756348
-1.20392429828643799 3.62605476379394531 -1.10956430435180664
-1.19089663028717041 3.98003816604614258 -0.525962471961975098
1.35931777954101562 3.81891989707946777 -1.08624053001403809
0.268091529607772827 4.27429914474487305 -0.712209701538085938
1.12431645393371582 2.63742876052856445 -1.06293118000030518
0.468742340803146362 4.77854394912719727 -0.420679301023483276
-0.62613368034362793 4.34264087677001953 -0.556383669376373291
0.029110252857208252 2.94385194778442383 -1.15956604480743408
0.697628915309906006 2.20972895622253418 -1.09198522567749023
-1.28380239009857178 4.37144279479980469 -0.89231717586517334
-1.33152079582214355 3.68867754936218262 -1.04149651527404785
-0.834070801734924316 4.36197853088378906 -0.657992839813232422
-0.959219992160797119 4.27677774429321289 -0.415758788585662842
0.835856735706329346 4.33239221572875977 -0.506700515747070312
0.49425584077835083 4.56284952163696289 -0.385296165943145752
-0.0331374853849411011 2.60907983779907227 -1.16571056842803955
1.15875530242919922 3.92088794708251953 -0.455756217241287231
-0.168762475252151489 4.6776576042175293 -0.685370326042175293
-0.0520553365349769592 2.92629027366638184 -1.15572094917297363
0.509241700172424316 4.72324371337890625 -0.760192155838012695
1.20125222206115723 2.6259300708770752 -1.0671074390411377
0.20395737886428833 1.37614381313323975 -1.08241713047027588
-1.29571962356567383 3.95012831687927246 -1.0698246955871582
0.641350269317626953 2.21352291107177734 -1.12167775630950928
0.119148343801498413 4.42999267578125 -0.670063614845275879
-0.307584911584854126 3.87995481491088867 -1.12018930912017822
0.960400402545928955 3.47069382667541504 -0.412443161010742188
0.929611802101135254 4.17101049423217773 -0.929291069507598877
0.59697568416595459 4.25811195373535156 -0.507237374782562256
-1.07779109477996826 4.38708400726318359 -0.587572336196899414
-1.8884737491607666 3.38727021217346191 -0.623563826084136963
-0.460620790719985962 2.00451087951660156 -1.23090124130249023
0.216764211654663086 1.45746588706970215 -1.15790128707885742
0.517987608909606934 2.39331769943237305 -1.17820358276367188
0.656931579113006592 2.22708392143249512 -1.14301621913909912
0.676473915576934814 2.16574382781982422 -1.07223320007324219
0.726485371589660645 3.57885098457336426 -1.11567890644073486
0.142527997493743896 2.61656284332275391 -1.18365085124969482
0.56844782829284668 4.01077556610107422 -0.925035476684570312
0.816832482814788818 3.73157548904418945 -0.694828629493713379
0.544040441513061523 3.6998140811920166 -0.793912351131439209
0.189285844564437866 1.37486445903778076 -1.11581110954284668
0.872559010982513428 2.76619458198547363 -1.09591960906982422
-1.04596304893493652 3.33047366142272949 -1.1563420295715332
0.841466546058654785 4.34071254730224609 -0.763795256614685059
-0.153902649879455566 2.75768136978149414 -1.15503311157226562
0.872366786003112793 4.04608964920043945 -0.99733579158782959
0.315747678279876709 3.14808940887451172 -1.0704045295715332
0.505397558212280273 4.49007272720336914 -0.519401371479034424
0.83689802885055542 2.42988061904907227 -1.17166244983673096
-0.0829232931137084961 2.76797032356262207 -1.14319968223571777
0.799822688102722168 3.76329326629638672 -1.05128872394561768
0.286667317152023315 4.44092464447021484 -0.585755527019500732
0.858273446559906006 4.52402210235595703 -0.165588498115539551
-1.06985723972320557 2.5166172981262207 -1.13548219203948975
-0.0201424285769462585 2.88621711730957031 -1.17599844932556152
-1.02592480182647705 4.10633754730224609 -0.588342070579528809
0.69064640998840332 2.14383292198181152 -1.11070859432220459
-0.382667064666748047 1.98540854454040527 -1.23362398147583008
-0.868788301944732666 4.22342681884765625 -0.856925845146179199
0.00335514545440673828 4.81758689880371094 -0.40706324577331543
-1.38948774337768555 4.77833747863769531 -0.478121161460876465
0.726215124130249023 3.56006097793579102 -1.09702765941619873
-0.917309165000915527 4.40985107421875 -0.556742072105407715
0.344575583934783936 2.50333666801452637 -1.16222178936004639
0.881722450256347656 4.52024221420288086 -0.487070858478546143
1.08852696418762207 2.47861671447753906 -1.12516272068023682
0.0765023529529571533 4.06440830230712891 -0.788335561752319336
0.228740200400352478 1.66005039215087891 -1.17094659805297852
-1.15619754791259766 3.28762340545654297 -0.913213372230529785
1.13073062896728516 3.80489683151245117 -0.826055288314819336
-1.32930707931518555 3.48986911773681641 -0.639229536056518555
-0.594892561435699463 4.41605186462402344 -0.82115095853805542
-1.3165280818939209 4.25473451614379883 -0.72329401969909668
1.2160571813583374 3.11580204963684082 -1.16412210464477539
0.918651103973388672 4.10664939880371094 -0.532162249088287354
-0.00890338420867919922 2.8871009349822998 -1.16320610046386719
0.223345398902893066 1.40640616416931152 -1.12587058544158936
0.767283439636230469 3.52373886108398438 -1.12796032428741455
0.18447113037109375 4.68490409851074219 -0.781673848628997803
1.45197618007659912 3.9648902416229248 -0.886659741401672363
0.372697204351425171 4.17721271514892578 -0.775351881980895996
0.660341382026672363 2.17488193511962891 -1.06931769847869873
0.144510507583618164 2.8518226146697998 -1.16535079479217529
-1.3310394287109375 2.90753841400146484 -1.08040452003479004
0.742948055267333984 4.76846742630004883 -0.460703283548355103
1.02138781547546387 3.7930147647857666 -0.596462786197662354
0.653627991676330566 4.56057071685791016 -0.383579999208450317
1.13866519927978516 4.2738795280456543 -0.948611319065093994
0.373472869396209717 4.67819547653198242 -0.335854977369308472
-0.288594931364059448 2.0326993465423584 -1.20632100105285645
1.17048525810241699 2.71115207672119141 -1.14038717746734619
-2.01308536529541016 2.86255502700805664 -0.614842653274536133
-1.69030582904815674 3.55910229682922363 -0.395501285791397095
-0.981771469116210938 4.02299213409423828 -0.875339150428771973
-1.44314432144165039 3.24979877471923828 -1.03072404861450195
-0.185272887349128723 2.07129168510437012 -1.22442638874053955
0.751658916473388672 4.71190834045410156 -0.489295601844787598
-1.05700457096099854 2.47915053367614746 -1.09265589714050293
1.23530066013336182 4.18390846252441406 -0.107945889234542847
0.241388320922851562 3.73319387435913086 -0.78696364164352417
0.522388994693756104 4.31261301040649414 -0.639359652996063232
0.0963167548179626465 2.69199562072753906 -1.17323637008666992
-0.649974167346954346 4.57900667190551758 -0.310397118330001831
-1.36779570579528809 3.5794835090637207 -1.07507777214050293
-0.93631899356842041 4.48072385787963867 -0.572190701961517334
-1.21603608131408691 3.4917600154876709 -1.11512207984924316
0.456338405609130859 4.12031793594360352 -0.99799734354019165
-1.21872818470001221 3.24040007591247559 -1.19368696212768555
-1.09106385707855225 4.71024036407470703 -0.565466880798339844
0.97023320198059082 3.83697009086608887 -0.994046449661254883
0.23842388391494751 1.43473351001739502 -1.07926666736602783
-0.266869544982910156 4.57969570159912109 -0.633984029293060303
1.10774588584899902 2.66010665893554688 -1.05680704116821289
-0.214446455240249634 2.47430992126464844 -1.155708909034729
-0.965449333190917969 4.28905773162841797 -0.424113005399703979
0.0548858195543289185 2.78894639015197754 -1.18293333053588867
-0.324963092803955078 3.90453886985778809 -1.14898383617401123
0.856519997119903564 2.94605851173400879 -1.11799812316894531
0.688170790672302246 4.64286375045776367 -0.513001382350921631
1.46604692935943604 4.06377649307250977 -0.958644628524780273
0.447526425123214722 4.01961326599121094 -0.735523045063018799
-1.0572960376739502 3.23645734786987305 -1.24265861511230469
0.220248490571975708 2.66984462738037109 -1.18387913703918457
-1.00176215171813965 3.68391036987304688 -0.827848613262176514
-0.228195041418075562 2.29289150238037109 -1.17103016376495361
-1.04577243328094482 2.39826822280883789 -1.11573112010955811
1.01263570785522461 2.67357683181762695 -1.08281838893890381
0.622569262981414795 4.50812864303588867 -0.442699700593948364
-0.320888280868530273 2.12388157844543457 -1.17936491966247559
0.93919527530670166 4.36722517013549805 -0.439555346965789795
-1.21207070350646973 3.30154323577880859 -1.1780935525894165
-0.235929012298583984 2.38104367256164551 -1.11619126796722412
0.0365772433578968048 2.60944271087646484 -1.16833865642547607
-0.0716051459312438965 2.5503542423248291 -1.21774911880493164
1.0246729850769043 3.56208300590515137 -1.14647364616394043
0.804548144340515137 4.45974826812744141 -0.423925876617431641
0.476245462894439697 4.47123146057128906 -0.718566000461578369
-0.158427432179450989 4.77426052093505859 -0.35510706901550293
-0.413343369960784912 2.12758469581604004 -1.20540213584899902
0.623385071754455566 2.17246842384338379 -1.15357744693756104
-1.1970064640045166 3.93810415267944336 -0.899878263473510742
-1.04611682891845703 2.4393622875213623 -1.10436916351318359
0.448505759239196777 3.21852803230285645 -1.1558070182800293
